<svg width="84" height="84" viewBox="0 0 84 84" fill="none" xmlns="http://www.w3.org/2000/svg">
<path d="M73.5 69.125H24.5C22.8784 69.1159 21.3258 68.4677 20.1791 67.3208C19.0324 66.1742 18.3842 64.6215 18.375 63V35C18.3842 33.3784 19.0324 31.8258 20.1791 30.6791C21.3258 29.5324 22.8784 28.8842 24.5 28.875H73.5C75.1215 28.8842 76.6742 29.5324 77.8208 30.6791C78.9677 31.8258 79.6159 33.3784 79.625 35V63C79.6159 64.6215 78.9677 66.1742 77.8208 67.3208C76.6742 68.4677 75.1215 69.1159 73.5 69.125ZM24.5 34.125C24.268 34.125 24.0454 34.2172 23.8813 34.3813C23.7172 34.5454 23.625 34.768 23.625 35V63C23.625 63.232 23.7172 63.4546 23.8813 63.6188C24.0454 63.7829 24.268 63.875 24.5 63.875H73.5C73.732 63.875 73.9546 63.7829 74.1188 63.6188C74.2829 63.4546 74.375 63.232 74.375 63V35C74.375 34.768 74.2829 34.5454 74.1188 34.3813C73.9546 34.2172 73.732 34.125 73.5 34.125H24.5Z" fill="white"/>
<path d="M21 55.125H10.5C8.87838 55.1159 7.32582 54.4677 6.17911 53.3207C5.03244 52.1741 4.38421 50.6215 4.375 49V21C4.38421 19.3784 5.03244 17.8258 6.17911 16.6791C7.32582 15.5324 8.87838 14.8842 10.5 14.875H59.5C61.1215 14.8842 62.6742 15.5324 63.8208 16.6791C64.9677 17.8258 65.6159 19.3784 65.625 21V31.5C65.625 32.1962 65.3485 32.8639 64.8561 33.3562C64.364 33.8484 63.6961 34.125 63 34.125C62.3039 34.125 61.636 33.8484 61.1439 33.3562C60.6515 32.8639 60.375 32.1962 60.375 31.5V21C60.375 20.768 60.2829 20.5454 60.1188 20.3813C59.9546 20.2172 59.732 20.125 59.5 20.125H10.5C10.268 20.125 10.0454 20.2172 9.88127 20.3813C9.71719 20.5454 9.625 20.768 9.625 21V49C9.625 49.232 9.71719 49.4546 9.88127 49.6188C10.0454 49.7829 10.268 49.875 10.5 49.875H21C21.6962 49.875 22.3639 50.1515 22.8562 50.6439C23.3484 51.136 23.625 51.8039 23.625 52.5C23.625 53.1961 23.3484 53.864 22.8562 54.3561C22.3639 54.8485 21.6962 55.125 21 55.125Z" fill="white"/>
<path d="M49 58.625C47.0963 58.625 45.2354 58.0605 43.6527 57.0028C42.0697 55.9454 40.8362 54.4421 40.1075 52.6834C39.3792 50.9246 39.1884 48.9895 39.5598 47.1222C39.9315 45.2553 40.8481 43.5403 42.1942 42.1942C43.5403 40.8481 45.2553 39.9315 47.1222 39.5598C48.9895 39.1884 50.9246 39.3792 52.6834 40.1075C54.4421 40.8362 55.9454 42.0697 57.0028 43.6527C58.0605 45.2354 58.625 47.0963 58.625 49C58.625 51.5525 57.611 54.0008 55.8057 55.8057C54.0008 57.611 51.5525 58.625 49 58.625ZM49 44.625C48.1348 44.625 47.2888 44.8815 46.5692 45.3624C45.85 45.843 45.2893 46.5262 44.9582 47.3256C44.6267 48.1253 44.5403 49.0049 44.709 49.8537C44.878 50.7021 45.2946 51.4818 45.9064 52.0936C46.5182 52.7054 47.2979 53.1223 48.1463 53.291C48.9951 53.4597 49.8747 53.3733 50.6744 53.0418C51.4738 52.7107 52.157 52.15 52.6375 51.4307C53.1184 50.7111 53.375 49.8652 53.375 49C53.375 47.8397 52.914 46.7268 52.0936 45.9064C51.2732 45.086 50.1602 44.625 49 44.625Z" fill="white"/>
</svg>
