<svg width="84" height="84" viewBox="0 0 84 84" fill="none" xmlns="http://www.w3.org/2000/svg">
<path d="M21.4427 35.5118C15.6047 35.5118 10.8596 40.2569 10.8596 46.0949C10.8596 51.9329 15.6047 56.678 21.4427 56.678C27.2807 56.678 32.0258 51.9329 32.0258 46.0949C32.0258 40.2569 27.2807 35.5118 21.4427 35.5118ZM21.4427 52.0159C18.1778 52.0159 15.5356 49.3737 15.5356 46.1088C15.5356 42.8439 18.1917 40.2017 21.4427 40.2017C24.6937 40.2017 27.3498 42.8439 27.3498 46.1088C27.3498 49.3737 24.7076 52.0159 21.4427 52.0159Z" fill="white"/>
<path d="M42.8715 81.3163C42.6917 69.6681 33.1463 60.2333 21.4427 60.2333C9.61458 60.2333 0.013916 69.8342 0.013916 81.6621C0.013916 82.9486 1.05158 84 2.35181 84H40.5475H40.5614C43.093 84 42.8993 81.4408 42.8715 81.3163ZM4.84185 79.3379C5.97624 71.1896 12.9901 64.8952 21.4427 64.8952C29.8953 64.8952 36.9092 71.1759 38.0436 79.3379H4.84185Z" fill="white"/>
<path d="M59.6245 0C46.1779 0 35.2353 10.9426 35.2353 24.3894C35.2353 29.8123 37.0476 35.0832 40.3954 39.3716L37.5871 53.9111C37.4074 54.8518 37.8223 55.8064 38.6248 56.332C39.3579 56.7884 40.6584 56.6917 41.2533 56.235L52.7078 47.7686C54.9765 48.4465 57.2868 48.7784 59.5971 48.7784C73.0437 48.7784 83.9865 37.8358 83.9865 24.389C83.9865 10.9422 73.0713 0 59.6245 0ZM59.6245 44.1028C57.4249 44.1028 55.2252 43.7294 53.0949 42.9684C52.3617 42.7057 51.5593 42.8302 50.923 43.3006L43.3006 48.9171L45.182 39.1779C45.3202 38.4863 45.1266 37.753 44.6701 37.2135C41.5989 33.6443 39.9113 29.0791 39.9113 24.3755C39.9113 13.4881 48.7512 4.64818 59.6386 4.64818C70.526 4.64818 79.3659 13.4881 79.3659 24.3755C79.3657 35.2629 70.5119 44.1028 59.6245 44.1028Z" fill="white"/>
<path d="M59.763 8.49409C59.7075 8.49409 59.6799 8.49409 59.6247 8.49409C57.1623 8.49409 54.8244 9.44873 53.0812 11.1917C51.2967 12.9625 50.3005 15.328 50.3005 17.8459C50.3005 19.1324 51.3382 20.1838 52.6384 20.1838C53.9389 20.1838 54.9763 19.1463 54.9763 17.8459C54.9763 16.5869 55.4743 15.3974 56.3598 14.5258C57.2451 13.6541 58.4488 13.1562 59.6938 13.1838C62.1563 13.2114 64.259 15.3143 64.2868 17.7768C64.3007 19.4369 63.4982 20.9308 62.0872 21.8163C59.0713 23.6839 57.2868 26.8103 57.2868 30.1722C57.2868 31.4587 58.3245 32.5101 59.6247 32.5101C60.9113 32.5101 61.9626 31.4724 61.9626 30.1722C61.9626 28.429 62.9448 26.7966 64.5635 25.7868C67.3718 24.0299 69.018 21.028 68.9628 17.7355C68.8796 12.6995 64.7709 8.57712 59.763 8.49409Z" fill="white"/>
<path d="M59.6245 34.7095C58.338 34.7095 57.2866 35.747 57.2866 37.0474V37.9466C57.2866 39.2332 58.3243 40.2845 59.6245 40.2845C60.911 40.2845 61.9624 39.2469 61.9624 37.9466V37.0474C61.9626 35.747 60.911 34.7095 59.6245 34.7095Z" fill="white"/>
</svg>
