<svg width="84" height="84" viewBox="0 0 84 84" fill="none" xmlns="http://www.w3.org/2000/svg">
<path d="M82.3267 3.21109H1.67331C0.749307 3.21109 0 3.96023 0 4.8844V50.4054V61.1718C0 62.0959 0.749307 62.8451 1.67331 62.8451H40.3267V67.2427H27.9282C27.0042 67.2427 26.2549 67.9918 26.2549 68.916C26.2549 69.8402 27.0042 70.5893 27.9282 70.5893H50.6209V71.7492V79.1156C50.6209 80.0398 51.3702 80.7889 52.2942 80.7889H74.0159C74.9399 80.7889 75.6892 80.0398 75.6892 79.1156V71.7492V62.8451H82.3267C83.2507 62.8451 84 62.0959 84 61.1718V50.4054V4.8844C84 3.9604 83.2507 3.21109 82.3267 3.21109ZM50.6209 67.2429H43.6733V62.8452H50.6209V67.2429ZM50.6209 59.4986H3.34661V52.0788H50.6209V59.4986ZM72.3426 77.4427H53.9675V73.4229H72.3426V77.4427V77.4427ZM72.3426 50.4055V61.1719V70.0761H53.9675V61.1719V50.4055V42.8235H72.3426V50.4055V50.4055ZM80.6534 59.4986H75.6892V52.0788H80.6534V59.4986ZM80.6534 48.7321H75.6892V41.1501C75.6892 40.226 74.9399 39.4768 74.0159 39.4768H52.2942C51.3702 39.4768 50.6209 40.226 50.6209 41.1501V48.7322H3.34661V6.5577H80.6534V48.7321Z" fill="white"/>
<path d="M7.33978 12.0354H52.6718C53.596 12.0354 54.3451 11.2863 54.3451 10.3621C54.3451 9.43795 53.5958 8.68881 52.6718 8.68881H7.33978C6.41578 8.68881 5.66647 9.43795 5.66647 10.3621C5.66647 11.2863 6.41578 12.0354 7.33978 12.0354Z" fill="white"/>
<path d="M59.2829 12.0354H61.7383C62.6623 12.0354 63.4116 11.2863 63.4116 10.3621C63.4116 9.43795 62.6623 8.68881 61.7383 8.68881H59.2829C58.3589 8.68881 57.6096 9.43795 57.6096 10.3621C57.6096 11.2863 58.3589 12.0354 59.2829 12.0354Z" fill="white"/>
<path d="M58.1496 67.5673C59.0736 67.5673 59.8229 66.8182 59.8229 65.894V55.1276C59.8229 54.2034 59.0736 53.4543 58.1496 53.4543C57.2256 53.4543 56.4763 54.2034 56.4763 55.1276V65.894C56.4763 66.8182 57.2256 67.5673 58.1496 67.5673Z" fill="white"/>
<path d="M58.1496 50.9455C59.0736 50.9455 59.8229 50.1964 59.8229 49.2722V46.8168C59.8229 45.8926 59.0736 45.1435 58.1496 45.1435C57.2256 45.1435 56.4763 45.8926 56.4763 46.8168V49.2722C56.4763 50.1964 57.2256 50.9455 58.1496 50.9455Z" fill="white"/>
</svg>
