<svg width="84" height="84" viewBox="0 0 84 84" fill="none" xmlns="http://www.w3.org/2000/svg">
<path d="M73.4508 46.1836H10.5492C5.7422 46.1836 1.82111 50.0883 1.82111 54.9117V71.6789C1.82111 76.4859 5.72579 80.407 10.5492 80.407H73.4672C78.2742 80.407 82.1953 76.5023 82.1953 71.6789V54.8953C82.1789 50.0883 78.2578 46.1836 73.4508 46.1836ZM78.1594 71.6625C78.1594 74.2547 76.043 76.3711 73.4508 76.3711H10.5492C7.95704 76.3711 5.84064 74.2547 5.84064 71.6625V54.8953C5.84064 52.3031 7.95704 50.1867 10.5492 50.1867H73.4672C76.0594 50.1867 78.1758 52.3031 78.1758 54.8953V71.6625H78.1594Z" fill="white"/>
<path d="M56.6508 26.6273C57.2742 26.6273 57.8977 26.332 58.2914 25.7742C58.9313 24.8719 58.718 23.6086 57.8156 22.9687C53.2547 19.7367 47.8735 18.0305 42.2461 18.0305C36.6188 18.0305 31.2211 19.7367 26.6766 22.9687C25.7742 23.6086 25.561 24.8719 26.2008 25.7742C26.8406 26.6766 28.1039 26.8898 29.0063 26.25C32.8781 23.4937 37.4555 22.05 42.2625 22.05C47.0531 22.05 51.6469 23.5101 55.5188 26.25C55.8469 26.5125 56.257 26.6273 56.6508 26.6273Z" fill="white"/>
<path d="M42.2461 32.3695C39.7852 32.3695 37.4227 33.1242 35.4375 34.5352C34.5352 35.175 34.3219 36.4383 34.9617 37.3406C35.6016 38.243 36.8648 38.4563 37.7672 37.8164C39.0797 36.8813 40.6219 36.3891 42.2461 36.3891C43.8703 36.3891 45.4289 36.8813 46.725 37.8164C47.0859 38.0625 47.4797 38.1938 47.8898 38.1938C48.5133 38.1938 49.1367 37.8984 49.5305 37.3406C50.1703 36.4383 49.957 35.175 49.0547 34.5352C47.0695 33.1078 44.707 32.3695 42.2461 32.3695Z" fill="white"/>
<path d="M66.8555 15.4383C67.4789 15.4383 68.1023 15.143 68.4961 14.5852C69.1359 13.6828 68.9226 12.4195 68.0203 11.7797C60.4898 6.44766 51.5648 3.60938 42.2461 3.60938C32.9273 3.60938 24.0023 6.43125 16.4719 11.7797C15.5695 12.4195 15.3562 13.6828 15.9961 14.5852C16.6359 15.4875 17.8992 15.7008 18.8016 15.0609C25.6594 10.2047 33.7641 7.62891 42.2461 7.62891C50.7281 7.62891 58.8328 10.2047 65.6906 15.0609C66.0516 15.3234 66.4453 15.4383 66.8555 15.4383Z" fill="white"/>
<path d="M64.4602 61.2773H41.4422C40.3266 61.2773 39.4243 62.1797 39.4243 63.2953C39.4243 64.4109 40.3266 65.3133 41.4422 65.3133H64.4602C65.5758 65.3133 66.4782 64.4109 66.4782 63.2953C66.4618 62.1633 65.5594 61.2773 64.4602 61.2773Z" fill="white"/>
<path d="M22.6407 65.6906C23.9726 65.6906 25.0524 64.6109 25.0524 63.2789C25.0524 61.947 23.9726 60.8672 22.6407 60.8672C21.3087 60.8672 20.2289 61.947 20.2289 63.2789C20.2289 64.6109 21.3087 65.6906 22.6407 65.6906Z" fill="white"/>
</svg>
