<svg width="84" height="84" viewBox="0 0 84 84" fill="none" xmlns="http://www.w3.org/2000/svg">
<path d="M42.0001 31.6006C42.9061 31.6006 43.6407 30.866 43.6407 29.96V26.0598C43.6407 25.1538 42.9061 24.4192 42.0001 24.4192C41.0942 24.4192 40.3595 25.1538 40.3595 26.0598V29.96C40.3595 30.866 41.094 31.6006 42.0001 31.6006Z" fill="white"/>
<path d="M43.6408 59.3936V36.743C43.6408 35.837 42.9061 35.1024 42.0001 35.1024C41.0942 35.1024 40.3595 35.837 40.3595 36.743V59.3936C36.78 60.1512 34.0851 63.3345 34.0851 67.1365C34.0851 71.5007 37.6357 75.0515 42.0001 75.0515C46.3645 75.0515 49.9152 71.5009 49.9152 67.1365C49.9152 63.3345 47.2201 60.1512 43.6408 59.3936ZM42.0001 71.7701C39.4449 71.7701 37.3663 69.6915 37.3663 67.1363C37.3663 64.5813 39.4449 62.5027 42.0001 62.5027C44.5554 62.5027 46.6339 64.5813 46.6339 67.1363C46.6339 69.6915 44.5554 71.7701 42.0001 71.7701Z" fill="white"/>
<path d="M50.9325 52.3768V8.76299C50.9325 3.9311 47.0014 0 42.1695 0C37.3378 0 33.4067 3.9311 33.4067 8.76299V52.1731C28.1514 55.2295 24.9278 60.7933 24.9278 66.9279C24.9278 76.3414 32.5864 84 41.9999 84C51.4135 84 59.0721 76.3414 59.0721 66.9279C59.0722 60.9626 55.978 55.4751 50.9325 52.3768ZM42.0001 80.7186C34.3959 80.7186 28.2092 74.5319 28.2092 66.9277C28.2092 61.6946 31.1131 56.9757 35.7877 54.6123C36.34 54.3332 36.6881 53.767 36.6881 53.1482V8.76299C36.6879 5.74028 39.147 3.28124 42.1695 3.28124C45.1922 3.28124 47.6511 5.74028 47.6511 8.76299V9.83544H44.5438C43.6378 9.83544 42.9031 10.5701 42.9031 11.4761C42.9031 12.382 43.6378 13.1167 44.5438 13.1167H47.6513V16.9578H44.5438C43.6378 16.9578 42.9031 17.6925 42.9031 18.5984C42.9031 19.5044 43.6378 20.2391 44.5438 20.2391H47.6513V53.3252C47.6513 53.9293 47.9832 54.4845 48.5154 54.7705C53.0032 57.1812 55.7908 61.8397 55.7908 66.9279C55.791 74.5319 49.6041 80.7186 42.0001 80.7186Z" fill="white"/>
</svg>
