<svg width="84" height="84" viewBox="0 0 84 84" fill="none" xmlns="http://www.w3.org/2000/svg">
<path d="M81.6288 41.4364C81.6316 41.4358 81.6327 41.4364 81.6341 41.4364C82.879 41.4364 83.8879 40.4273 83.8879 39.1826C83.8879 38.5488 83.6262 37.9757 83.205 37.5664L66.0025 18.6843C68.3242 18.0978 70.1914 16.3567 70.9526 14.1097H76.957C80.8405 14.1097 84 10.9502 84 7.06668C84 3.18316 80.8405 0.0236511 76.957 0.0236511H65.4064C62.3108 0.0236511 59.6751 2.03148 58.733 4.81291H52.7289C48.8454 4.81291 45.6859 7.97242 45.6859 11.8559C45.6859 12.7496 45.8552 13.604 46.16 14.3914H23.3124C23.2938 14.3914 23.2755 14.394 23.2572 14.3943C23.2121 14.3954 23.1674 14.3976 23.1226 14.4013C23.0924 14.4038 23.062 14.4072 23.0321 14.4106C22.9865 14.4165 22.9414 14.4238 22.8961 14.432C22.8679 14.4376 22.8403 14.443 22.8124 14.4492C22.7653 14.4599 22.7189 14.4726 22.6726 14.4861C22.6473 14.4937 22.6219 14.501 22.5971 14.5095C22.5501 14.5253 22.5036 14.5433 22.4571 14.5624C22.4335 14.572 22.4101 14.5813 22.3867 14.5917C22.3419 14.612 22.298 14.6346 22.254 14.6579C22.2301 14.6706 22.2061 14.683 22.1825 14.6965C22.1427 14.7196 22.1041 14.7453 22.0653 14.7709C22.0391 14.7884 22.0129 14.8053 21.9875 14.8239C21.954 14.8481 21.9219 14.8749 21.8892 14.9011C21.8607 14.9242 21.8326 14.947 21.8052 14.9712C21.7973 14.9785 21.7883 14.9847 21.7804 14.9921C21.7582 15.0126 21.739 15.0349 21.7176 15.0566C21.6987 15.0757 21.6779 15.0929 21.6596 15.1129L0.765437 37.6506C0.156355 38.3076 -0.00563442 39.2635 0.352715 40.0844C0.711065 40.9056 1.52214 41.4367 2.4183 41.4367H4.7425V70.2624C1.925 71.2045 0 73.838 0 76.9333C0 80.8168 3.20627 83.9763 7.09008 83.9763H76.6752C80.5588 83.9763 83.6712 80.8168 83.6712 76.9333C83.6712 74.0513 81.9339 71.569 79.3984 70.4802V41.4364H81.6288ZM76.6752 79.4688H7.09008C5.6919 79.4688 4.55459 78.3315 4.55459 76.9333C4.55459 75.5351 5.6919 74.3978 7.09008 74.3978H76.6752C78.0734 74.3978 79.2107 75.5351 79.2107 76.9333C79.2107 78.3315 78.0731 79.4688 76.6752 79.4688ZM52.7289 9.32017H53.8558H60.6171C61.8618 9.32017 62.8709 8.31105 62.8709 7.0664C62.8709 5.66822 64.0082 4.53091 65.4064 4.53091H76.957C78.3551 4.53091 79.4925 5.66822 79.4925 7.0664C79.4925 8.46459 78.3551 9.60189 76.957 9.60189H69.0688C67.8241 9.60189 66.815 10.611 66.815 11.8557C66.815 13.2538 65.6777 14.3912 64.2795 14.3912H61.0961H52.7289C51.3308 14.3912 50.1934 13.2538 50.1934 11.8557C50.1934 10.4575 51.3308 9.32017 52.7289 9.32017ZM25.3082 69.8903H21.0823V58.3397H25.3082V69.8903ZM65.594 69.8903H50.6628V50.7332H65.594V69.8903ZM39.0435 36.9289H7.58084L23.3124 19.9602L39.0435 36.9289ZM56.0155 18.8987H60.1002H60.8048V23.9697H56.0155V18.8987ZM51.508 18.8987V26.2235C51.508 27.4681 52.6109 28.4772 53.8555 28.4772H63.1523C64.397 28.4772 65.3123 27.4681 65.3123 26.2235V24.7227L76.5265 36.9289H45.1904L28.4753 18.8987H51.508ZM9.24976 41.4364H37.1402V69.8903H29.8154V56.0859C29.8154 54.8413 28.9001 53.8321 27.6555 53.8321H18.9221C17.6774 53.8321 16.5745 54.8413 16.5745 56.0859V69.8903H9.24976V41.4364ZM74.8908 69.8903H70.1016V48.4794C70.1016 47.2348 69.1862 46.2257 67.9416 46.2257H48.5028C47.2582 46.2257 46.1552 47.2348 46.1552 48.4794V69.8903H41.6477V41.4364H74.8908V69.8903Z" fill="white"/>
<path d="M16.0111 50.8741C17.2558 50.8741 18.2648 49.865 18.2648 48.6203C18.2648 47.3756 17.2558 46.3665 16.0111 46.3665C14.7663 46.3665 13.7573 47.3756 13.7573 48.6203C13.7573 49.865 14.7663 50.8741 16.0111 50.8741Z" fill="white"/>
<path d="M30.3791 50.8741C31.6239 50.8741 32.6329 49.865 32.6329 48.6203C32.6329 47.3756 31.6239 46.3665 30.3791 46.3665C29.1344 46.3665 28.1254 47.3756 28.1254 48.6203C28.1254 49.865 29.1344 50.8741 30.3791 50.8741Z" fill="white"/>
</svg>
