<svg width="84" height="84" viewBox="0 0 84 84" fill="none" xmlns="http://www.w3.org/2000/svg">
<path d="M35.1632 78.6909H35.1488H35.1632ZM35.1632 78.6909L41.0864 47.5702L19.6284 47.498L48.8367 5.30906L42.9134 39.5469L64.3702 39.6217L35.1632 78.6909ZM35.1592 83.9408C35.3009 83.9408 35.4426 83.9357 35.5817 83.9253C36.5083 83.8504 37.1227 83.5406 37.851 83.0511C38.2612 82.7776 38.631 82.448 38.9496 82.0719C39.0453 81.959 39.1355 81.8417 39.22 81.7202L68.6371 42.7875C69.7987 41.1954 69.9693 39.094 69.0768 37.3379C68.1856 35.5818 66.3835 34.4688 64.4082 34.4544L49.2541 34.3441L54.0185 6.27366C54.4713 3.86129 53.185 1.45679 50.921 0.488164C50.263 0.205381 49.5543 0.0597881 48.8381 0.0602889C47.1883 0.0602889 45.8325 0.832041 44.8152 2.22592L15.3614 44.415C14.1999 46.0071 14.0305 48.1111 14.9217 49.8646C15.8129 51.6207 17.615 52.7338 19.5903 52.7481L34.7444 52.7744L30.0312 77.4559C29.9313 77.86 29.8811 78.2748 29.8815 78.691C29.8815 81.5313 32.143 83.8465 34.9728 83.9384C35.0357 83.941 35.0975 83.941 35.1591 83.941L35.1592 83.9408Z" fill="white"/>
</svg>
