<svg width="84" height="84" viewBox="0 0 84 84" fill="none" xmlns="http://www.w3.org/2000/svg">
<path d="M76.7715 5.4462C75.6661 4.33978 74.1561 3.72912 72.5208 3.72912C70.6836 3.72912 68.833 4.50331 67.414 5.85917L61.3241 10.8024L61.0871 11.0176C59.7405 12.3621 59.2106 14.251 59.5366 16.1533L45.3394 29.9386L42.9569 27.8768C44.6646 21.1979 44.4545 12.301 38.6947 6.54123C34.4771 2.32359 29.0805 0 23.5008 0C21.2828 0 19.0907 0.370532 16.9844 1.10021C16.0198 1.43452 15.2808 2.22112 15.0086 3.20541C14.7364 4.1897 14.9651 5.24334 15.6193 6.02684L23.2711 15.1721L22.8943 21.0541L16.5352 21.7796L7.45721 14.1847C6.67372 13.5286 5.61904 13.2998 4.63475 13.5741C3.65046 13.8473 2.86386 14.5863 2.52955 15.551C0.0496806 22.7122 2.23458 30.425 8.52431 36.7106C11.9129 40.1013 16.7919 41.8929 22.6314 41.8929C23.0589 41.8929 23.4894 41.8711 23.92 41.8504C23.7037 42.0388 23.4863 42.2251 23.2814 42.43L5.83847 59.872C0.995675 64.7148 0.995675 72.5932 5.83847 77.436L8.76443 80.362C11.1097 82.7083 14.2293 84 17.5464 84C20.8636 84 23.9831 82.7083 26.3285 80.362L43.7704 62.919C44.7371 61.9534 45.4978 60.8676 46.0712 59.7074L61.5642 77.6088C61.6139 77.6658 61.6656 77.7196 61.7174 77.7734C63.4541 79.5091 66.0603 80.4655 69.0597 80.4655C72.704 80.4655 76.4031 79.032 78.7122 76.7239C82.7715 72.6646 84.0507 64.0275 79.7596 59.7333C79.7047 59.6805 79.652 59.6287 79.595 59.5822L57.0371 40.064L70.0512 26.6617C70.4094 26.7228 70.7675 26.7528 71.1287 26.7528C72.6874 26.7528 74.1261 26.1701 75.1818 25.1154L80.3402 18.7885C81.5212 17.5547 82.2602 15.9991 82.432 14.3886C82.6317 12.5029 82.02 10.6957 80.7542 9.43097L76.7715 5.4462ZM39.3799 58.5285L21.938 75.9715C20.7653 77.1441 19.2056 77.79 17.5464 77.79C15.8873 77.79 14.3286 77.1441 13.1549 75.9715L10.229 73.0455C7.80808 70.6236 7.80808 66.6844 10.229 64.2645L27.6719 46.8205C28.8446 45.6479 30.4043 45.002 32.0624 45.002C32.5499 45.002 33.027 45.0662 33.4897 45.1728L41.188 54.0687C41.2067 55.6802 40.6074 57.301 39.3799 58.5285ZM74.3196 72.3334C73.1697 73.4833 71.0552 74.2554 69.0576 74.2554C67.8042 74.2554 66.733 73.9522 66.1669 73.4388L33.2454 35.4003C32.4205 34.4471 31.0998 34.0869 29.9075 34.4895C27.5891 35.2699 25.073 35.6818 22.6304 35.6818C18.5338 35.6818 15.0831 34.4874 12.9148 32.318C10.9524 30.3557 8.19621 26.8843 7.78428 22.5559L13.57 27.3966C14.222 27.9431 15.0676 28.1967 15.9153 28.1004L26.1774 26.9288C27.6709 26.758 28.828 25.5429 28.9232 24.0421L29.5453 14.3297C29.596 13.5337 29.3393 12.7502 28.828 12.1396L23.8714 6.21521C27.6626 6.31871 31.3534 7.98403 34.3011 10.9317C38.3563 14.9879 38.2683 22.5849 36.4695 27.9276C36.0668 29.1219 36.427 30.4416 37.3803 31.2665L75.424 64.1879C76.8036 65.698 76.4776 70.1744 74.3196 72.3334ZM75.8255 14.5263L70.9538 20.5004C70.903 20.4807 70.8461 20.4538 70.784 20.4165L68.6757 19.1642L52.3361 35.9934L50.0518 34.0175L67.0363 17.5247L65.7849 15.4185C65.7487 15.3543 65.7197 15.2974 65.7021 15.2477L71.4371 10.5912L71.6752 10.3759C71.9846 10.0685 72.2941 9.96193 72.4866 9.94433L76.2602 13.718C76.2478 13.8732 76.1474 14.2034 75.8255 14.5263Z" fill="white"/>
</svg>
