<svg width="84" height="84" viewBox="0 0 84 84" fill="none" xmlns="http://www.w3.org/2000/svg">
<g clip-path="url(#clip0_445_31)">
<path d="M76.1384 41.7583H74.2701C73.3458 41.7583 72.5962 42.5077 72.5962 43.4323C72.5962 44.3568 73.3458 45.1062 74.2701 45.1062H76.1384C77.0628 45.1062 77.8124 44.3568 77.8124 43.4323C77.8124 42.5077 77.063 41.7583 76.1384 41.7583Z" fill="white"/>
<path d="M68.6654 41.7581H64.31V17.4081L66.9404 19.035C67.2148 19.2046 67.5188 19.2856 67.8192 19.2856C68.3802 19.2856 68.9279 19.0039 69.2446 18.492C69.7309 17.7058 69.4877 16.6741 68.7014 16.1878L42.9148 0.238885C42.3376 -0.0796689 41.6625 -0.0796689 41.0855 0.238885L15.2989 16.1876C14.5127 16.6739 14.2695 17.7056 14.7557 18.4918C15.242 19.2781 16.2738 19.5215 17.0599 19.035L19.6904 17.4081V41.7581H7.86173C6.93737 41.7581 6.18777 42.5076 6.18777 43.4321C6.18777 44.3566 6.93737 45.106 7.86173 45.106H26.3993V45.1062V59.7279L24.7151 58.0439C24.0612 57.3902 23.0016 57.3902 22.3476 58.0439C21.6939 58.6975 21.6939 59.7575 22.3476 60.4112L26.684 64.7474C26.9846 65.1936 27.4947 65.4873 28.0732 65.4873C28.5409 65.4873 28.9634 65.2949 29.2672 64.9856C29.2711 64.9819 29.2753 64.9787 29.279 64.975L33.8427 60.4113C34.4963 59.7576 34.4963 58.6977 33.8427 58.0439C33.1888 57.3902 32.1292 57.3902 31.4752 58.0439L29.7472 59.7719V45.106H54.2532V54.6415C54.2532 55.5661 55.0028 56.3155 55.9271 56.3155C56.8515 56.3155 57.6011 55.5661 57.6011 54.6415V45.106H68.6654C69.5898 45.106 70.3394 44.3566 70.3394 43.4321C70.3394 42.5076 69.5898 41.7581 68.6654 41.7581ZM46.4407 41.7583H37.5598V26.2489H46.4407V41.7583ZM60.9619 41.7581H55.9271V41.7583H49.7884V24.575C49.7884 23.6505 49.0388 22.901 48.1145 22.901H35.8857C34.9614 22.901 34.2118 23.6505 34.2118 24.575V41.7583H28.073H23.0381V15.3374L42 3.60972L60.9619 15.3374V41.7581V41.7581Z" fill="white"/>
<path d="M28.3847 72.0982C29.3021 71.9839 29.9532 71.1476 29.8389 70.2301C29.7781 69.7413 29.7472 69.2409 29.7472 68.7429C29.7472 67.8184 28.9976 67.069 28.0732 67.069C27.1489 67.069 26.3993 67.8184 26.3993 68.7429C26.3993 69.3789 26.4388 70.0185 26.5168 70.644C26.6222 71.4912 27.3434 72.1113 28.1757 72.1113C28.2446 72.1111 28.3146 72.1069 28.3847 72.0982Z" fill="white"/>
<path d="M57.1329 58.2136C56.479 57.5599 55.4194 57.5601 54.7654 58.2136L50.2017 62.7773C49.548 63.431 49.548 64.4909 50.2017 65.1448C50.8555 65.7984 51.9152 65.7984 52.5692 65.1448L54.2532 63.4608V68.7429C54.2532 75.3097 48.9107 80.6521 42.344 80.6521H41.6562C37.1976 80.6521 33.1475 78.1934 31.0858 74.2353C30.6586 73.4154 29.6484 73.0967 28.828 73.5239C28.0081 73.9509 27.6895 74.9618 28.1166 75.7817C30.7567 80.851 35.945 84 41.6562 84H42.344C50.7568 84 57.6011 77.1557 57.6011 68.7429V63.4166L59.3293 65.1448C59.6562 65.4717 60.0846 65.6351 60.5129 65.6351C60.9413 65.6351 61.3696 65.4715 61.6966 65.1448C62.3502 64.4911 62.3502 63.4311 61.6966 62.7775L57.1329 58.2136Z" fill="white"/>
</g>
<defs>
<clipPath id="clip0_445_31">
<rect width="84" height="84" fill="white"/>
</clipPath>
</defs>
</svg>
