<svg width="444" height="785" viewBox="0 0 444 785" fill="none" xmlns="http://www.w3.org/2000/svg">
<path fill-rule="evenodd" clip-rule="evenodd" d="M405.885 412.585C384.835 412.585 367.771 429.649 367.771 450.701C367.771 464.967 375.613 477.393 387.216 483.926L397.209 466.617C391.579 463.541 387.759 457.568 387.759 450.701C387.759 440.69 395.874 432.573 405.885 432.573C415.896 432.573 424.012 440.69 424.012 450.701C424.012 457.568 420.192 463.541 414.561 466.617L424.555 483.926C436.157 477.393 444 464.967 444 450.701C444 429.649 426.936 412.585 405.885 412.585Z" fill="#FDCF3C"/>
<path fill-rule="evenodd" clip-rule="evenodd" d="M325.411 227.354L323.949 226.639C319.561 226.639 316.004 245.288 316.004 268.292C316.004 291.298 319.561 309.947 323.949 309.947C323.986 309.947 324.022 309.935 324.058 309.932C373.01 329.38 383.947 376.293 383.947 408.305H427.823C432.414 325.34 393.369 257.744 325.411 227.354Z" fill="#E35A38"/>
<path fill-rule="evenodd" clip-rule="evenodd" d="M427.823 418.932H383.947C381.011 418.932 378.633 416.553 378.633 413.618C378.633 410.683 381.011 408.305 383.947 408.305H427.823C430.758 408.305 433.137 410.683 433.137 413.618C433.137 416.553 430.758 418.932 427.823 418.932Z" fill="#FCAE3D"/>
<path fill-rule="evenodd" clip-rule="evenodd" d="M427.605 379.069L381.662 383.206C382 385.026 382.301 386.836 382.557 388.628L427.982 385.542C427.889 383.371 427.76 381.215 427.605 379.069Z" fill="#E29788"/>
<path fill-rule="evenodd" clip-rule="evenodd" d="M410.375 310.831L359.606 334.882C360.605 336.046 361.558 337.231 362.481 338.431L413.213 317.262C412.306 315.092 411.36 312.948 410.375 310.831Z" fill="#E29788"/>
<path fill-rule="evenodd" clip-rule="evenodd" d="M424.727 356.295L376.781 364.943C377.385 366.633 377.932 368.326 378.449 370.021L425.809 362.815C425.48 360.626 425.123 358.451 424.727 356.295Z" fill="#E29788"/>
<path fill-rule="evenodd" clip-rule="evenodd" d="M419.11 333.479L369.2 348.485C370.051 349.961 370.854 351.454 371.618 352.958L421.01 339.98C420.414 337.792 419.779 335.625 419.11 333.479Z" fill="#E29788"/>
<path fill-rule="evenodd" clip-rule="evenodd" d="M383.823 402.441C383.902 404.344 383.941 406.208 383.944 408.024L427.839 408.003C427.954 405.862 428.037 403.734 428.094 401.615L383.823 402.441Z" fill="#E29788"/>
<path fill-rule="evenodd" clip-rule="evenodd" d="M359.956 247.824L331.373 313.203C332.239 313.629 333.095 314.063 333.935 314.508L366.59 253.165C364.429 251.334 362.219 249.552 359.956 247.824Z" fill="#E29788"/>
<path fill-rule="evenodd" clip-rule="evenodd" d="M381.409 267.386L340.159 318.109C341.026 318.658 341.864 319.225 342.699 319.795L386.637 273.335C384.942 271.309 383.197 269.328 381.409 267.386Z" fill="#E29788"/>
<path fill-rule="evenodd" clip-rule="evenodd" d="M334.033 231.495L321.227 307.436C322.077 309.06 322.994 309.947 323.95 309.947C323.987 309.947 324.023 309.935 324.059 309.933C324.12 309.957 324.176 309.983 324.235 310.008L341.826 235.744C339.277 234.269 336.68 232.851 334.033 231.495Z" fill="#E29788"/>
<path fill-rule="evenodd" clip-rule="evenodd" d="M398.031 288.676L349.412 324.865C350.394 325.684 351.352 326.517 352.282 327.365L401.961 294.927C400.694 292.81 399.383 290.728 398.031 288.676Z" fill="#E29788"/>
<mask id="mask0_7_147" style="mask-type:alpha" maskUnits="userSpaceOnUse" x="0" y="0" width="444" height="785">
<path fill-rule="evenodd" clip-rule="evenodd" d="M444 784.708H0.817017V0.0374756H444V784.708Z" fill="white"/>
</mask>
<g mask="url(#mask0_7_147)">
<path fill-rule="evenodd" clip-rule="evenodd" d="M323.984 440.233H120.866V202.977H323.984V440.233Z" fill="#FDCF3C"/>
<path fill-rule="evenodd" clip-rule="evenodd" d="M119.286 188.042H325.567C329.691 188.042 333.035 191.386 333.035 195.51C333.035 199.634 329.691 202.978 325.567 202.978H119.286C115.161 202.978 111.817 199.634 111.817 195.51C111.817 191.386 115.161 188.042 119.286 188.042Z" fill="#FCAE3D"/>
<path fill-rule="evenodd" clip-rule="evenodd" d="M156.489 134.326H288.365C292.49 134.326 295.834 137.67 295.834 141.794C295.834 145.919 292.49 149.262 288.365 149.262H156.489C152.364 149.262 149.021 145.919 149.021 141.794C149.021 137.67 152.364 134.326 156.489 134.326Z" fill="#FCAE3D"/>
<path fill-rule="evenodd" clip-rule="evenodd" d="M222.428 1.4325C252.8 1.4325 277.422 26.0545 277.422 56.4275V134.325H167.433V56.4275C167.433 26.0545 192.055 1.4325 222.428 1.4325Z" fill="#FDCF3C"/>
<path fill-rule="evenodd" clip-rule="evenodd" d="M322.17 188.042L286.62 149.261H157.355L122.685 188.042H322.17Z" fill="#FDCF3C"/>
<path fill-rule="evenodd" clip-rule="evenodd" d="M120.868 440.056C120.868 481.636 166.338 515.344 222.428 515.344C278.517 515.344 323.986 481.636 323.986 440.056H120.868Z" fill="#FDCF3C"/>
<path fill-rule="evenodd" clip-rule="evenodd" d="M119.286 440.233H325.567C329.691 440.233 333.035 443.576 333.035 447.701C333.035 451.825 329.691 455.169 325.567 455.169H119.286C115.161 455.169 111.817 451.825 111.817 447.701C111.817 443.576 115.161 440.233 119.286 440.233Z" fill="#FCAE3D"/>
<path fill-rule="evenodd" clip-rule="evenodd" d="M152.556 611.855H199.315L205.467 514.293C205.467 514.293 203.157 493.896 182.41 487.902C162.593 482.177 150.962 493.544 150.962 493.544L152.556 611.855Z" fill="#FDCF3C"/>
<path fill-rule="evenodd" clip-rule="evenodd" d="M205.467 514.293C205.762 508.277 203.803 502.123 200.242 496.928L198.828 495.02C198.308 494.422 197.756 493.85 197.217 493.262C196.692 492.657 196.098 492.125 195.48 491.617C194.863 491.109 194.276 490.556 193.628 490.088C192.971 489.631 192.3 489.193 191.629 488.754C191.289 488.542 190.965 488.299 190.612 488.113L189.545 487.566L187.391 486.51C186.655 486.203 185.899 485.959 185.153 485.684C184.399 485.439 183.651 485.14 182.889 484.951L180.602 484.414L179.453 484.165C179.068 484.098 178.674 484.058 178.284 484.004C177.504 483.904 176.725 483.795 175.944 483.713C175.16 483.645 174.365 483.656 173.58 483.627C172.793 483.596 172.006 483.59 171.217 483.674C170.43 483.738 169.645 483.783 168.863 483.867L166.536 484.28C163.463 484.941 160.496 486.035 157.824 487.59C155.174 489.153 152.725 491.093 150.961 493.545C153.574 492.088 156.268 491.054 158.987 490.299C161.703 489.544 164.446 489.109 167.172 488.955C169.901 488.768 172.619 489.025 175.301 489.367C175.969 489.507 176.639 489.617 177.306 489.739C177.639 489.803 177.975 489.85 178.307 489.924L179.295 490.194L181.278 490.695C181.937 490.866 182.545 491.141 183.184 491.35C183.815 491.572 184.461 491.762 185.082 492.008L186.889 492.854C188.15 493.326 189.208 494.136 190.394 494.753C192.58 496.246 194.748 497.855 196.579 499.876C200.317 503.837 203.309 508.736 205.467 514.293Z" fill="#FCAE3D"/>
<path fill-rule="evenodd" clip-rule="evenodd" d="M152.961 784.708L207.564 751.438L199.434 642.683H152.555L144.344 784.708H152.961Z" fill="#FDCF3C"/>
<path fill-rule="evenodd" clip-rule="evenodd" d="M212.271 71.3455C212.271 85.4615 222.692 96.9065 235.547 96.9065C248.402 96.9065 258.824 85.4615 258.824 71.3455C258.824 57.2285 248.402 45.7845 235.547 45.7845C222.692 45.7845 212.271 57.2285 212.271 71.3455Z" fill="#FCAE3D"/>
<path fill-rule="evenodd" clip-rule="evenodd" d="M218.121 71.3455C218.121 81.9145 225.923 90.4825 235.548 90.4825C245.172 90.4825 252.975 81.9145 252.975 71.3455C252.975 60.7765 245.172 52.2075 235.548 52.2075C225.923 52.2075 218.121 60.7765 218.121 71.3455Z" fill="#035A63"/>
<path fill-rule="evenodd" clip-rule="evenodd" d="M224.079 71.3455C224.079 78.3005 229.214 83.9395 235.548 83.9395C241.882 83.9395 247.016 78.3005 247.016 71.3455C247.016 64.3895 241.882 58.7505 235.548 58.7505C229.214 58.7505 224.079 64.3895 224.079 71.3455Z" fill="#6AA095"/>
<path fill-rule="evenodd" clip-rule="evenodd" d="M38.933 412.585C59.983 412.585 77.047 429.649 77.047 450.701C77.047 464.967 69.205 477.393 57.602 483.926L47.609 466.617C53.239 463.541 57.059 457.568 57.059 450.701C57.059 440.69 48.944 432.573 38.933 432.573C28.922 432.573 20.807 440.69 20.807 450.701C20.807 457.568 24.626 463.541 30.257 466.617L20.264 483.926C8.66098 477.393 0.817993 464.967 0.817993 450.701C0.817993 429.649 17.882 412.585 38.933 412.585Z" fill="#FDCF3C"/>
<path fill-rule="evenodd" clip-rule="evenodd" d="M287.167 611.855H242.206L239.353 514.293C239.353 514.293 241.663 493.896 262.411 487.902C282.228 482.177 293.857 493.544 293.857 493.544L287.167 611.855Z" fill="#FDCF3C"/>
<path fill-rule="evenodd" clip-rule="evenodd" d="M241.352 784.708L295.857 750.895L288.004 642.683H242.206L232.735 784.708H241.352Z" fill="#FDCF3C"/>
<path fill-rule="evenodd" clip-rule="evenodd" d="M139.692 28.0505C139.692 28.0505 140.014 18.1015 144.382 18.1015C148.751 18.1015 150.591 27.7205 150.591 27.7205L153.66 45.3655C154.19 48.4185 156.66 50.7615 159.736 51.1305L167.431 52.0535C169.437 52.0535 171.062 60.5745 171.062 71.0855C171.062 81.5975 169.437 90.1175 167.431 90.1175C167.274 90.1175 167.121 90.0475 166.968 89.9465L144.223 81.5005C141.11 80.3445 139.061 77.3565 139.104 74.0345L139.692 28.0505Z" fill="#FCAE3D"/>
<path fill-rule="evenodd" clip-rule="evenodd" d="M277.42 52.0535L285.116 51.1305C288.192 50.7615 290.662 48.4185 291.192 45.3665L294.26 27.7195C294.26 27.7195 296.102 18.1015 300.47 18.1015C304.838 18.1015 305.159 28.0505 305.159 28.0505L305.749 74.0345C305.791 77.3565 303.741 80.3445 300.628 81.5005L277.42 90.1175V52.0535Z" fill="#FCAE3D"/>
<path fill-rule="evenodd" clip-rule="evenodd" d="M192.085 317.501H280.27C291.138 317.501 299.949 308.689 299.949 297.821V249.087C299.949 238.218 291.138 229.407 280.27 229.407H192.085C181.216 229.407 172.405 238.218 172.405 249.087V297.821C172.405 308.689 181.216 317.501 192.085 317.501Z" fill="#FCAE3D"/>
<path fill-rule="evenodd" clip-rule="evenodd" d="M192.672 312.649H279.682C287.766 312.649 294.318 306.095 294.318 298.012V250.163C294.318 242.08 287.766 235.526 279.682 235.526H192.672C184.589 235.526 178.035 242.08 178.035 250.163V298.012C178.035 306.095 184.589 312.649 192.672 312.649Z" fill="#16494C"/>
<path fill-rule="evenodd" clip-rule="evenodd" d="M185.478 340.669H286.877C290.889 340.669 294.141 337.417 294.141 333.405C294.141 329.394 290.889 326.142 286.877 326.142H185.478C181.466 326.142 178.214 329.394 178.214 333.405C178.214 337.417 181.466 340.669 185.478 340.669Z" fill="#FCAE3D"/>
<path fill-rule="evenodd" clip-rule="evenodd" d="M186.037 337.123H286.318C288.371 337.123 290.035 335.459 290.035 333.406C290.035 331.353 288.371 329.69 286.318 329.69H186.037C183.984 329.69 182.321 331.353 182.321 333.406C182.321 335.459 183.984 337.123 186.037 337.123Z" fill="#E35A38"/>
<path fill-rule="evenodd" clip-rule="evenodd" d="M119.406 227.354L120.868 226.639C125.257 226.639 128.814 245.288 128.814 268.292C128.814 291.298 125.257 309.947 120.868 309.947C120.831 309.947 120.795 309.935 120.759 309.932C71.808 329.38 60.871 376.293 60.871 408.305H16.994C12.403 325.34 51.448 257.744 119.406 227.354Z" fill="#E35A38"/>
<path fill-rule="evenodd" clip-rule="evenodd" d="M16.993 418.932H60.87C63.805 418.932 66.184 416.553 66.184 413.618C66.184 410.683 63.805 408.305 60.87 408.305H16.993C14.058 408.305 11.679 410.683 11.679 413.618C11.679 416.553 14.058 418.932 16.993 418.932Z" fill="#FCAE3D"/>
<path fill-rule="evenodd" clip-rule="evenodd" d="M293.857 493.545C289.228 495.556 284.769 497.434 280.293 499.261C275.824 501.08 271.371 502.836 266.875 504.496C265.76 504.936 264.619 505.303 263.493 505.716L261.808 506.35L260.103 506.93C258.97 507.331 257.832 507.713 256.703 508.145C255.558 508.518 254.414 508.897 253.271 509.299C250.997 510.153 248.668 510.822 246.361 511.691C244.045 512.527 241.694 513.258 239.353 514.293C240.609 514.441 241.864 514.508 243.123 514.561C244.38 514.607 245.648 514.672 246.896 514.591C249.394 514.449 251.918 514.315 254.386 513.883C255.627 513.686 256.869 513.489 258.101 513.246C259.328 512.982 260.543 512.668 261.765 512.371C264.211 511.783 266.586 510.943 268.961 510.121C273.677 508.371 278.216 506.129 282.468 503.43C286.683 500.698 290.715 497.552 293.857 493.545Z" fill="#FCAE3D"/>
<path fill-rule="evenodd" clip-rule="evenodd" d="M167.467 612.431H164.467V487.135H167.467V612.431Z" fill="#FCAE3D"/>
<path fill-rule="evenodd" clip-rule="evenodd" d="M167.467 774.737H164.467V642.682H167.467V774.737Z" fill="#FCAE3D"/>
<path fill-rule="evenodd" clip-rule="evenodd" d="M254.658 612.431H251.658V511.775H254.658V612.431Z" fill="#FCAE3D"/>
<path fill-rule="evenodd" clip-rule="evenodd" d="M254.658 774.737H251.658V642.682H254.658V774.737Z" fill="#FCAE3D"/>
<path fill-rule="evenodd" clip-rule="evenodd" d="M153.005 627.268H199.803C201.932 627.268 203.656 625.543 203.656 623.415C203.656 621.287 201.932 619.562 199.803 619.562H153.005C150.877 619.562 149.151 621.287 149.151 623.415C149.151 625.543 150.877 627.268 153.005 627.268Z" fill="#E35A38"/>
<path fill-rule="evenodd" clip-rule="evenodd" d="M153.005 634.975H199.803C201.932 634.975 203.656 633.249 203.656 631.121C203.656 628.994 201.932 627.268 199.803 627.268H153.005C150.877 627.268 149.151 628.994 149.151 631.121C149.151 633.249 150.877 634.975 153.005 634.975Z" fill="#E35A38"/>
<path fill-rule="evenodd" clip-rule="evenodd" d="M153.005 642.682H199.803C201.932 642.682 203.656 640.956 203.656 638.828C203.656 636.701 201.932 634.975 199.803 634.975H153.005C150.877 634.975 149.151 636.701 149.151 638.828C149.151 640.956 150.877 642.682 153.005 642.682Z" fill="#E35A38"/>
<path fill-rule="evenodd" clip-rule="evenodd" d="M153.005 619.562H199.803C201.932 619.562 203.656 617.836 203.656 615.708C203.656 613.581 201.932 611.855 199.803 611.855H153.005C150.877 611.855 149.151 613.581 149.151 615.708C149.151 617.836 150.877 619.562 153.005 619.562Z" fill="#E35A38"/>
<path fill-rule="evenodd" clip-rule="evenodd" d="M200.865 619.562C196.839 619.148 192.813 618.931 188.788 618.785C184.762 618.625 180.736 618.583 176.71 618.562C172.684 618.58 168.659 618.623 164.634 618.781C160.607 618.928 156.581 619.146 152.555 619.562C156.581 619.979 160.607 620.196 164.634 620.342C168.659 620.501 172.684 620.544 176.71 620.561C180.736 620.541 184.762 620.499 188.788 620.339C192.813 620.192 196.839 619.977 200.865 619.562Z" fill="#BF432B"/>
<path fill-rule="evenodd" clip-rule="evenodd" d="M200.865 627.269C196.839 626.855 192.813 626.638 188.788 626.492C184.762 626.332 180.736 626.289 176.71 626.269C172.684 626.287 168.659 626.33 164.634 626.488C160.607 626.634 156.581 626.852 152.555 627.269C156.581 627.685 160.607 627.902 164.634 628.048C168.659 628.208 172.684 628.25 176.71 628.268C180.736 628.248 184.762 628.206 188.788 628.046C192.813 627.899 196.839 627.682 200.865 627.269Z" fill="#BF432B"/>
<path fill-rule="evenodd" clip-rule="evenodd" d="M200.865 634.975C196.839 634.562 192.813 634.345 188.788 634.198C184.762 634.038 180.736 633.997 176.71 633.977C172.684 633.995 168.659 634.036 164.634 634.195C160.607 634.341 156.581 634.558 152.555 634.975C156.581 635.392 160.607 635.609 164.634 635.755C168.659 635.914 172.684 635.956 176.71 635.974C180.736 635.954 184.762 635.913 188.788 635.753C192.813 635.606 196.839 635.388 200.865 634.975Z" fill="#BF432B"/>
<path fill-rule="evenodd" clip-rule="evenodd" d="M240.898 627.268H287.697C289.825 627.268 291.549 625.543 291.549 623.415C291.549 621.287 289.825 619.562 287.697 619.562H240.898C238.77 619.562 237.044 621.287 237.044 623.415C237.044 625.543 238.77 627.268 240.898 627.268Z" fill="#E35A38"/>
<path fill-rule="evenodd" clip-rule="evenodd" d="M240.898 634.975H287.697C289.825 634.975 291.549 633.249 291.549 631.121C291.549 628.994 289.825 627.268 287.697 627.268H240.898C238.77 627.268 237.044 628.994 237.044 631.121C237.044 633.249 238.77 634.975 240.898 634.975Z" fill="#E35A38"/>
<path fill-rule="evenodd" clip-rule="evenodd" d="M240.898 642.682H287.697C289.825 642.682 291.549 640.956 291.549 638.828C291.549 636.701 289.825 634.975 287.697 634.975H240.898C238.77 634.975 237.044 636.701 237.044 638.828C237.044 640.956 238.77 642.682 240.898 642.682Z" fill="#E35A38"/>
<path fill-rule="evenodd" clip-rule="evenodd" d="M240.898 619.562H287.697C289.825 619.562 291.549 617.836 291.549 615.708C291.549 613.581 289.825 611.855 287.697 611.855H240.898C238.77 611.855 237.044 613.581 237.044 615.708C237.044 617.836 238.77 619.562 240.898 619.562Z" fill="#E35A38"/>
<path fill-rule="evenodd" clip-rule="evenodd" d="M288.756 619.562C284.731 619.148 280.705 618.931 276.679 618.785C272.652 618.625 268.627 618.583 264.602 618.562C260.576 618.58 256.55 618.623 252.524 618.781C248.498 618.928 244.473 619.146 240.447 619.562C244.473 619.979 248.498 620.196 252.524 620.342C256.55 620.501 260.576 620.544 264.602 620.561C268.627 620.541 272.652 620.499 276.679 620.339C280.705 620.192 284.731 619.977 288.756 619.562Z" fill="#BF432B"/>
<path fill-rule="evenodd" clip-rule="evenodd" d="M288.756 627.269C284.731 626.855 280.705 626.638 276.679 626.492C272.652 626.332 268.627 626.289 264.602 626.269C260.576 626.287 256.55 626.33 252.524 626.488C248.498 626.634 244.473 626.852 240.447 627.269C244.473 627.685 248.498 627.902 252.524 628.048C256.55 628.208 260.576 628.25 264.602 628.268C268.627 628.248 272.652 628.206 276.679 628.046C280.705 627.899 284.731 627.682 288.756 627.269Z" fill="#BF432B"/>
<path fill-rule="evenodd" clip-rule="evenodd" d="M288.756 634.975C284.731 634.562 280.705 634.345 276.679 634.198C272.652 634.038 268.627 633.997 264.602 633.977C260.576 633.995 256.55 634.036 252.524 634.195C248.498 634.341 244.473 634.558 240.447 634.975C244.473 635.392 248.498 635.609 252.524 635.755C256.55 635.914 260.576 635.956 264.602 635.974C268.627 635.954 272.652 635.913 276.679 635.753C280.705 635.606 284.731 635.388 288.756 634.975Z" fill="#BF432B"/>
<path fill-rule="evenodd" clip-rule="evenodd" d="M235.548 47.2855C236.361 47.2855 237.029 46.6345 237.047 45.8165C237.682 15.2965 225 1.11248 224.46 0.523481C223.9 -0.0865187 222.951 -0.126514 222.341 0.431486C221.731 0.991486 221.69 1.93848 222.247 2.54948C222.278 2.58348 225.385 6.04148 228.376 13.0585C231.139 19.5425 234.365 30.4765 234.047 45.7545C234.03 46.5825 234.688 47.2675 235.516 47.2855H235.548Z" fill="#FCAE3D"/>
<path fill-rule="evenodd" clip-rule="evenodd" d="M235.547 135.826C236.375 135.826 237.047 135.154 237.047 134.326V96.7465C237.047 95.9185 236.375 95.2465 235.547 95.2465C234.719 95.2465 234.047 95.9185 234.047 96.7465V134.326C234.047 135.154 234.719 135.826 235.547 135.826Z" fill="#FCAE3D"/>
<path fill-rule="evenodd" clip-rule="evenodd" d="M253.856 190.628C254.046 190.628 254.24 190.592 254.426 190.515C255.193 190.199 255.557 189.322 255.242 188.557L238.691 148.393C238.376 147.627 237.499 147.264 236.733 147.577C235.966 147.893 235.602 148.77 235.918 149.535L252.468 189.699C252.707 190.278 253.266 190.628 253.856 190.628Z" fill="#FCAE3D"/>
<path fill-rule="evenodd" clip-rule="evenodd" d="M197.418 284.956C203.204 284.956 205.996 279.194 208.459 274.11C210.74 269.402 212.896 264.956 216.801 264.956C220.706 264.956 222.86 269.402 225.142 274.11C227.605 279.194 230.397 284.956 236.181 284.956C241.966 284.956 244.758 279.192 247.221 274.108C249.502 269.401 251.656 264.956 255.561 264.956C259.465 264.956 261.619 269.402 263.9 274.11C266.363 279.194 269.154 284.956 274.939 284.956C280.725 284.956 283.516 279.194 285.979 274.11C288.26 269.402 290.414 264.956 294.318 264.956V261.956C288.533 261.956 285.742 267.717 283.279 272.801C280.998 277.509 278.844 281.956 274.939 281.956C271.035 281.956 268.881 277.509 266.6 272.801C264.137 267.717 261.346 261.956 255.561 261.956C249.776 261.956 246.984 267.717 244.522 272.801C242.24 277.509 240.086 281.956 236.181 281.956C232.276 281.956 230.122 277.51 227.841 272.803C225.378 267.719 222.586 261.956 216.801 261.956C211.015 261.956 208.223 267.717 205.76 272.801C203.479 277.509 201.323 281.956 197.418 281.956C193.513 281.956 191.357 277.509 189.076 272.801C186.613 267.717 183.821 261.956 178.035 261.956V264.956C181.94 264.956 184.096 269.402 186.377 274.11C188.84 279.194 191.632 284.956 197.418 284.956Z" fill="#AFEFEA"/>
<path fill-rule="evenodd" clip-rule="evenodd" d="M331.892 93.5745H392.083C396.513 93.5745 400.137 89.9505 400.137 85.5205V57.1715C400.137 52.7415 396.513 49.1175 392.083 49.1175H331.892C327.462 49.1175 323.837 52.7415 323.837 57.1715V85.5205C323.837 89.9505 327.462 93.5745 331.892 93.5745Z" fill="#AFEFEA"/>
<path fill-rule="evenodd" clip-rule="evenodd" d="M355.699 71.5025H387.651C388.371 71.5025 388.955 70.9185 388.955 70.1985C388.955 69.4795 388.371 68.8955 387.651 68.8955H355.699C354.979 68.8955 354.395 69.4795 354.395 70.1985C354.395 70.9185 354.979 71.5025 355.699 71.5025Z" fill="white"/>
<path fill-rule="evenodd" clip-rule="evenodd" d="M342.007 79.8875H387.65C388.369 79.8875 388.953 79.3035 388.953 78.5835C388.953 77.8645 388.369 77.2805 387.65 77.2805H342.007C341.287 77.2805 340.703 77.8645 340.703 78.5835C340.703 79.3035 341.287 79.8875 342.007 79.8875Z" fill="white"/>
<path fill-rule="evenodd" clip-rule="evenodd" d="M340.297 63.8475H387.65C388.369 63.8475 388.953 63.2635 388.953 62.5435C388.953 61.8245 388.369 61.2405 387.65 61.2405H340.297C339.577 61.2405 338.993 61.8245 338.993 62.5435C338.993 63.2635 339.577 63.8475 340.297 63.8475Z" fill="white"/>
<path fill-rule="evenodd" clip-rule="evenodd" d="M358.775 163.16H430.456C434.885 163.16 438.51 159.536 438.51 155.106V120.062C438.51 115.633 434.885 112.009 430.456 112.009H358.775C354.345 112.009 350.721 115.633 350.721 120.062V155.106C350.721 159.536 354.345 163.16 358.775 163.16Z" fill="#AFEFEA"/>
<path fill-rule="evenodd" clip-rule="evenodd" d="M371.63 137.764H424.145C424.973 137.764 425.645 137.092 425.645 136.264C425.645 135.436 424.973 134.764 424.145 134.764H371.63C370.802 134.764 370.13 135.436 370.13 136.264C370.13 137.092 370.802 137.764 371.63 137.764Z" fill="white"/>
<path fill-rule="evenodd" clip-rule="evenodd" d="M379.502 147.414H424.145C424.973 147.414 425.645 146.742 425.645 145.914C425.645 145.086 424.973 144.414 424.145 144.414H379.502C378.674 144.414 378.002 145.086 378.002 145.914C378.002 146.742 378.674 147.414 379.502 147.414Z" fill="white"/>
<path fill-rule="evenodd" clip-rule="evenodd" d="M387.382 128.958H424.145C424.973 128.958 425.645 128.286 425.645 127.458C425.645 126.63 424.973 125.958 424.145 125.958H387.382C386.554 125.958 385.882 126.63 385.882 127.458C385.882 128.286 386.554 128.958 387.382 128.958Z" fill="white"/>
<path fill-rule="evenodd" clip-rule="evenodd" d="M12.823 150.983H97.68C104.281 150.983 109.68 145.583 109.68 138.983V87.6745C109.68 81.0745 104.281 75.6745 97.68 75.6745H12.823C6.222 75.6745 0.822998 81.0745 0.822998 87.6745V138.983C0.822998 145.583 6.222 150.983 12.823 150.983Z" fill="#AFEFEA"/>
<path fill-rule="evenodd" clip-rule="evenodd" d="M15.785 108.103H93.028C94.197 108.103 95.143 107.156 95.143 105.988C95.143 104.819 94.197 103.873 93.028 103.873H15.785C14.616 103.873 13.67 104.819 13.67 105.988C13.67 107.156 14.616 108.103 15.785 108.103Z" fill="white"/>
<path fill-rule="evenodd" clip-rule="evenodd" d="M18.831 97.1275H93.027C94.196 97.1275 95.143 96.1815 95.143 95.0125C95.143 93.8445 94.196 92.8975 93.027 92.8975H18.831C17.663 92.8975 16.716 93.8445 16.716 95.0125C16.716 96.1815 17.663 97.1275 18.831 97.1275Z" fill="white"/>
<path fill-rule="evenodd" clip-rule="evenodd" d="M48.257 120.611H93.028C94.196 120.611 95.143 119.665 95.143 118.496C95.143 117.328 94.196 116.381 93.028 116.381H48.257C47.088 116.381 46.142 117.328 46.142 118.496C46.142 119.665 47.088 120.611 48.257 120.611Z" fill="white"/>
<path fill-rule="evenodd" clip-rule="evenodd" d="M22.893 133.758H93.028C94.197 133.758 95.143 132.812 95.143 131.644C95.143 130.475 94.197 129.529 93.028 129.529H22.893C21.725 129.529 20.778 130.475 20.778 131.644C20.778 132.812 21.725 133.758 22.893 133.758Z" fill="white"/>
<path fill-rule="evenodd" clip-rule="evenodd" d="M282.699 337.406H280.699V329.406H282.699V337.406ZM272.699 337.406H270.699V329.406H272.699V337.406ZM262.699 337.406H260.699V329.406H262.699V337.406ZM252.699 337.406H250.699V329.406H252.699V337.406ZM242.699 337.406H240.699V329.406H242.699V337.406ZM232.699 337.406H230.699V329.406H232.699V337.406ZM222.699 337.406H220.699V329.406H222.699V337.406ZM212.699 337.406H210.699V329.406H212.699V337.406ZM202.699 337.406H200.699V329.406H202.699V337.406ZM192.699 337.406H190.699V329.406H192.699V337.406Z" fill="#FCAE3D"/>
<path fill-rule="evenodd" clip-rule="evenodd" d="M272.425 355.962C274.1 355.962 275.463 357.325 275.463 359C275.463 360.675 274.1 362.038 272.425 362.038C270.75 362.038 269.387 360.675 269.387 359C269.387 357.325 270.75 355.962 272.425 355.962ZM272.425 365.038C275.754 365.038 278.463 362.329 278.463 359C278.463 355.671 275.754 352.962 272.425 352.962C269.096 352.962 266.387 355.671 266.387 359C266.387 362.329 269.096 365.038 272.425 365.038Z" fill="#FCAE3D"/>
<path fill-rule="evenodd" clip-rule="evenodd" d="M248.261 355.962C249.936 355.962 251.299 357.325 251.299 359C251.299 360.675 249.936 362.038 248.261 362.038C246.586 362.038 245.223 360.675 245.223 359C245.223 357.325 246.586 355.962 248.261 355.962ZM248.261 365.038C251.59 365.038 254.299 362.329 254.299 359C254.299 355.671 251.59 352.962 248.261 352.962C244.932 352.962 242.223 355.671 242.223 359C242.223 362.329 244.932 365.038 248.261 365.038Z" fill="#FCAE3D"/>
<path fill-rule="evenodd" clip-rule="evenodd" d="M224.095 355.962C225.77 355.962 227.133 357.325 227.133 359C227.133 360.675 225.77 362.038 224.095 362.038C222.42 362.038 221.057 360.675 221.057 359C221.057 357.325 222.42 355.962 224.095 355.962ZM224.095 365.038C227.424 365.038 230.133 362.329 230.133 359C230.133 355.671 227.424 352.962 224.095 352.962C220.766 352.962 218.057 355.671 218.057 359C218.057 362.329 220.766 365.038 224.095 365.038Z" fill="#FCAE3D"/>
<path fill-rule="evenodd" clip-rule="evenodd" d="M199.931 355.962C201.606 355.962 202.969 357.325 202.969 359C202.969 360.675 201.606 362.038 199.931 362.038C198.256 362.038 196.893 360.675 196.893 359C196.893 357.325 198.256 355.962 199.931 355.962ZM199.931 365.038C203.26 365.038 205.969 362.329 205.969 359C205.969 355.671 203.26 352.962 199.931 352.962C196.602 352.962 193.893 355.671 193.893 359C193.893 362.329 196.602 365.038 199.931 365.038Z" fill="#FCAE3D"/>
<path fill-rule="evenodd" clip-rule="evenodd" d="M17.211 379.069L63.154 383.206C62.816 385.026 62.515 386.836 62.259 388.628L16.835 385.542C16.927 383.371 17.057 381.215 17.211 379.069Z" fill="#E29788"/>
<path fill-rule="evenodd" clip-rule="evenodd" d="M34.442 310.831L85.211 334.882C84.212 336.046 83.259 337.231 82.336 338.431L31.604 317.262C32.511 315.092 33.457 312.948 34.442 310.831Z" fill="#E29788"/>
<path fill-rule="evenodd" clip-rule="evenodd" d="M20.09 356.295L68.035 364.943C67.431 366.633 66.884 368.326 66.367 370.021L19.007 362.815C19.336 360.626 19.694 358.451 20.09 356.295Z" fill="#E29788"/>
<path fill-rule="evenodd" clip-rule="evenodd" d="M25.707 333.479L75.617 348.485C74.766 349.961 73.963 351.454 73.199 352.958L23.807 339.98C24.404 337.792 25.038 335.625 25.707 333.479Z" fill="#E29788"/>
<path fill-rule="evenodd" clip-rule="evenodd" d="M60.996 402.441C60.917 404.344 60.877 406.208 60.874 408.024L16.98 408.003C16.864 405.862 16.781 403.734 16.724 401.615L60.996 402.441Z" fill="#E29788"/>
<path fill-rule="evenodd" clip-rule="evenodd" d="M84.862 247.824L113.445 313.203C112.579 313.629 111.723 314.063 110.883 314.508L78.228 253.165C80.389 251.334 82.6 249.552 84.862 247.824Z" fill="#E29788"/>
<path fill-rule="evenodd" clip-rule="evenodd" d="M63.409 267.386L104.658 318.109C103.791 318.658 102.953 319.225 102.119 319.795L58.1811 273.335C59.8751 271.309 61.62 269.328 63.409 267.386Z" fill="#E29788"/>
<path fill-rule="evenodd" clip-rule="evenodd" d="M110.784 231.495L123.59 307.436C122.74 309.06 121.823 309.947 120.867 309.947C120.83 309.947 120.794 309.935 120.758 309.933C120.698 309.957 120.642 309.983 120.582 310.008L102.991 235.744C105.54 234.269 108.138 232.851 110.784 231.495Z" fill="#E29788"/>
<path fill-rule="evenodd" clip-rule="evenodd" d="M46.785 288.676L95.404 324.865C94.422 325.684 93.465 326.517 92.534 327.365L42.856 294.927C44.122 292.81 45.433 290.728 46.785 288.676Z" fill="#E29788"/>
<path fill-rule="evenodd" clip-rule="evenodd" d="M120.866 218.139C135.577 226.616 141.854 292.946 120.866 319.698L120.757 309.932C128.812 286.835 131.616 245.056 120.866 226.639V218.139Z" fill="#FCAE3D"/>
<path fill-rule="evenodd" clip-rule="evenodd" d="M152.96 784.708H228.443C228.443 763.868 211.546 746.967 190.702 746.967C169.857 746.967 152.96 763.868 152.96 784.708Z" fill="#FCAE3D"/>
<path fill-rule="evenodd" clip-rule="evenodd" d="M241.352 784.708H316.836C316.836 763.868 299.939 746.967 279.094 746.967C258.25 746.967 241.352 763.868 241.352 784.708Z" fill="#FCAE3D"/>
</g>
</svg>
