<svg viewBox="353.5999999999999 299.4749999999999 380.7999999999997 490.04999999999984" fill="none" xmlns="http://www.w3.org/2000/svg" xmlns:xlink="http://www.w3.org/1999/xlink" xmlns:blush="http://design.blush" overflow="visible" width="380.7999999999997px" height="490.04999999999984px"><g id="Master/Stickers/TV" blush:has-customizable-colors="true" blush:viewBox="359.03999999999996 299.4749999999999 369.91999999999973 490.04999999999984" blush:i="0"><g id="Group 134" blush:i="0.0"><g id="Group 70" blush:i="0.0.0"><g id="Group 3" blush:i="0.0.0.0"><mask id="mask0_122_20129e35afb16-948b-4e28-9bbe-db357cd28fa2" style="mask-type:alpha" maskUnits="userSpaceOnUse" x="364" y="582" width="72" height="42" blush:i="0.0.0.0.0" fill="#ffffff"><path id="Clip 2" fill-rule="evenodd" clip-rule="evenodd" d="M364 582.186H435.353V623.76H364V582.186Z" fill="#ffffff" blush:i="0.0.0.0.0.0"/></mask><g mask="url(#mask0_122_20129e35afb16-948b-4e28-9bbe-db357cd28fa2)" blush:i="0.0.0.0.1"><path id="Fill 1" fill-rule="evenodd" clip-rule="evenodd" d="M429.057 623.76H370.298C366.834 623.76 364 620.927 364 617.463V588.483C364 585.019 366.834 582.186 370.298 582.186H429.057C432.52 582.186 435.354 585.019 435.354 588.483V617.463C435.354 620.927 432.52 623.76 429.057 623.76" fill="#AFEFEA" blush:i="0.0.0.0.1.0"/></g></g><path id="Fill 4" fill-rule="evenodd" clip-rule="evenodd" d="M406.747 604.604H376.867C376.039 604.604 375.367 603.932 375.367 603.104C375.367 602.276 376.039 601.604 376.867 601.604H406.747C407.575 601.604 408.247 602.276 408.247 603.104C408.247 603.932 407.575 604.604 406.747 604.604" fill="white" blush:i="0.0.0.1"/><path id="Fill 6" fill-rule="evenodd" clip-rule="evenodd" d="M406.747 611.609H376.867C376.039 611.609 375.367 610.937 375.367 610.109C375.367 609.281 376.039 608.609 376.867 608.609H406.747C407.575 608.609 408.247 609.281 408.247 610.109C408.247 610.937 407.575 611.609 406.747 611.609" fill="white" blush:i="0.0.0.2"/><path id="Fill 8" fill-rule="evenodd" clip-rule="evenodd" d="M421.149 597.598H376.867C376.039 597.598 375.367 596.926 375.367 596.098C375.367 595.27 376.039 594.598 376.867 594.598H421.149C421.977 594.598 422.649 595.27 422.649 596.098C422.649 596.926 421.977 597.598 421.149 597.598" fill="white" blush:i="0.0.0.3"/><path id="Fill 10" fill-rule="evenodd" clip-rule="evenodd" d="M627.918 416.021L628.51 415.692L663.432 329.645L658.031 327.538L620.721 411.991C623.15 413.29 625.551 414.633 627.918 416.021" fill="#E8DFC8" blush:i="0.0.0.4"/><path id="Fill 12" fill-rule="evenodd" clip-rule="evenodd" d="M561.128 390.844C564.027 391.392 566.926 392.004 569.819 392.687L566.769 313.43H560.971L561.119 390.832L561.128 390.844Z" fill="#E8DFC8" blush:i="0.0.0.5"/><path id="Fill 14" fill-rule="evenodd" clip-rule="evenodd" d="M490.67 653.082L499.329 674.342C501.237 679.027 505.793 682.09 510.852 682.09H566.011C571.173 682.09 575.8 678.901 577.637 674.076L586.539 650.698L490.67 653.082Z" fill="#F2EDE0" blush:i="0.0.0.6"/><path id="Fill 16" fill-rule="evenodd" clip-rule="evenodd" d="M566.824 682.09C566.824 695.523 554.19 706.411 538.606 706.411C523.021 706.411 510.387 695.523 510.387 682.09H566.824Z" fill="#F9CD6B" blush:i="0.0.0.7"/><path id="Fill 18" fill-rule="evenodd" clip-rule="evenodd" d="M645.384 524.043C645.384 599.354 593.063 660.404 528.521 660.404C463.98 660.404 411.658 599.354 411.658 524.043C411.658 448.732 463.98 387.681 528.521 387.681C593.063 387.681 645.384 448.732 645.384 524.043" fill="#E8DFC8" blush:i="0.0.0.8"/><path id="Fill 20" fill-rule="evenodd" clip-rule="evenodd" d="M528.521 387.681C593.063 387.681 645.384 448.733 645.384 524.043C645.384 599.354 593.063 660.405 528.521 660.405C608.798 660.405 702.367 599.354 702.367 524.043C702.367 448.733 608.798 387.681 528.521 387.681" fill="#F2EDE0" blush:i="0.0.0.9"/><path id="Fill 22" fill-rule="evenodd" clip-rule="evenodd" d="M631.093 524.043C631.093 590.143 585.17 643.728 528.522 643.728C471.874 643.728 425.951 590.143 425.951 524.043C425.951 457.942 471.874 404.357 528.522 404.357C585.17 404.357 631.093 457.942 631.093 524.043" fill="#00474A" blush:i="0.0.0.10"/><path id="Fill 24" fill-rule="evenodd" clip-rule="evenodd" d="M534.013 404.529C479.918 407.859 436.934 460.092 436.934 524.043C436.934 587.993 479.918 640.225 534.013 643.556C588.108 640.225 631.092 587.993 631.092 524.043C631.092 460.092 588.108 407.859 534.013 404.529" fill="#BFE2DF" blush:i="0.0.0.11"/><path id="Fill 26" fill-rule="evenodd" clip-rule="evenodd" d="M534.013 405.03C479.854 408.383 437.434 460.652 437.434 524.043C437.434 587.444 479.87 639.721 534.043 643.057C588.156 639.721 630.592 587.444 630.592 524.043C630.592 460.652 588.172 408.383 534.013 405.03M534.043 644.055C479.283 640.687 436.434 587.971 436.434 524.043C436.434 460.113 479.283 407.397 533.983 404.03L534.013 404.028L534.043 404.03C588.743 407.397 631.592 460.113 631.592 524.043C631.592 587.971 588.743 640.687 534.043 644.055" fill="#BFE2DF" blush:i="0.0.0.12"/><path id="Fill 28" fill-rule="evenodd" clip-rule="evenodd" d="M531.89 416.021C519.644 418.487 508.494 423.514 498.85 430.52C489.18 437.497 481.01 446.34 474.292 456.177C467.567 466.025 462.264 476.876 458.324 488.294C454.349 499.718 451.783 511.678 450.086 524.043C448.458 511.658 449.342 498.868 452.314 486.532C455.303 474.196 460.465 462.275 467.72 451.683C474.945 441.102 484.326 431.805 495.445 425.291C500.994 422.045 506.951 419.497 513.122 417.889C519.296 416.321 525.651 415.555 531.89 416.021" fill="white" blush:i="0.0.0.13"/><path id="Fill 30" fill-rule="evenodd" clip-rule="evenodd" d="M574.665 725.353C574.665 728.478 558.52 731.01 538.605 731.01C518.69 731.01 502.545 728.478 502.545 725.353C502.545 722.229 518.69 719.697 538.605 719.697C558.52 719.697 574.665 722.229 574.665 725.353" fill="#F9CD6B" blush:i="0.0.0.14"/><path id="Fill 32" fill-rule="evenodd" clip-rule="evenodd" d="M567.415 746.759C567.415 749.255 554.517 751.28 538.605 751.28C522.694 751.28 509.795 749.255 509.795 746.759C509.795 744.263 522.694 742.239 538.605 742.239C554.517 742.239 567.415 744.263 567.415 746.759" fill="#F9CD6B" blush:i="0.0.0.15"/><path id="Fill 34" fill-rule="evenodd" clip-rule="evenodd" d="M562.344 765.195C562.344 767.252 551.716 768.919 538.606 768.919C525.495 768.919 514.867 767.252 514.867 765.195C514.867 763.138 525.495 761.47 538.606 761.47C551.716 761.47 562.344 763.138 562.344 765.195" fill="#F9CD6B" blush:i="0.0.0.16"/><path id="Fill 36" fill-rule="evenodd" clip-rule="evenodd" d="M557.215 782.031C557.215 783.643 548.883 784.95 538.605 784.95C528.326 784.95 519.994 783.643 519.994 782.031C519.994 780.419 528.326 779.111 538.605 779.111C548.883 779.111 557.215 780.419 557.215 782.031" fill="#F9CD6B" blush:i="0.0.0.17"/><path id="Fill 38" fill-rule="evenodd" clip-rule="evenodd" d="M688.871 475.195C687.142 476.664 685.712 478.382 684.442 480.185C683.783 481.065 683.232 482.029 682.636 482.94C682.086 483.889 681.584 484.867 681.071 485.823C679.107 489.722 677.731 493.874 676.68 498.082C674.554 506.509 673.844 515.262 673.84 524.043C673.851 532.822 674.561 541.575 676.687 550.001C677.74 554.208 679.115 558.359 681.078 562.258C681.591 563.215 682.091 564.192 682.641 565.141C683.235 566.052 683.788 567.016 684.445 567.896C685.715 569.701 687.143 571.42 688.871 572.89C686.774 571.98 684.9 570.564 683.203 569.002C682.302 568.255 681.574 567.357 680.764 566.514C680.008 565.633 679.296 564.713 678.565 563.797C675.795 560.028 673.761 555.766 672.179 551.388C670.519 547.009 669.605 542.436 668.819 537.862C668.536 535.566 668.303 533.261 668.078 530.959L667.842 524.043L668.083 517.127C668.308 514.824 668.538 512.518 668.826 510.224C669.609 505.65 670.532 501.078 672.186 496.699C673.769 492.322 675.803 488.061 678.572 484.293C679.303 483.376 680.014 482.455 680.768 481.574C681.578 480.73 682.306 479.834 683.206 479.087C684.903 477.523 686.776 476.106 688.871 475.195" fill="#DBD3BB" blush:i="0.0.0.18"/><path id="Fill 40" fill-rule="evenodd" clip-rule="evenodd" d="M694.439 484.998C693.819 485.637 693.309 486.353 692.82 487.067L692.12 488.157L691.492 489.287C691.093 490.046 690.719 490.817 690.357 491.583C690.043 492.383 689.675 493.14 689.412 493.953C688.233 497.134 687.385 500.412 686.813 503.749C685.569 510.394 685.225 517.206 685.207 524.043C685.233 530.88 685.577 537.691 686.821 544.335C687.394 547.671 688.241 550.948 689.418 554.129C689.681 554.942 690.048 555.699 690.362 556.499C690.723 557.266 691.097 558.037 691.496 558.796L692.123 559.926L692.822 561.017C693.31 561.73 693.819 562.448 694.439 563.088C692.82 562.308 691.407 561.096 690.156 559.781C688.887 558.466 687.799 556.986 686.789 555.456C684.809 552.366 683.328 548.973 682.248 545.493C680.013 538.52 679.224 531.227 679.209 524.043C679.233 516.857 680.021 509.566 682.255 502.595C683.337 499.115 684.817 495.722 686.795 492.633C687.805 491.102 688.891 489.622 690.16 488.307C691.41 486.992 692.821 485.78 694.439 484.998" fill="#DBD3BB" blush:i="0.0.0.19"/><path id="Fill 42" fill-rule="evenodd" clip-rule="evenodd" d="M570.562 310.649C570.562 314.321 567.585 317.298 563.913 317.298C560.241 317.298 557.264 314.321 557.264 310.649C557.264 306.977 560.241 304 563.913 304C567.585 304 570.562 306.977 570.562 310.649" fill="#F2EDE0" blush:i="0.0.0.20"/><path id="Fill 44" fill-rule="evenodd" clip-rule="evenodd" d="M656.662 323.785C655.327 327.206 657.018 331.061 660.439 332.396C663.86 333.731 667.716 332.04 669.05 328.619C670.385 325.198 668.693 321.343 665.272 320.008C661.851 318.673 657.996 320.364 656.662 323.785" fill="#F2EDE0" blush:i="0.0.0.21"/><path id="Fill 46" fill-rule="evenodd" clip-rule="evenodd" d="M473.384 702.878H414.625C411.162 702.878 408.328 700.044 408.328 696.58V667.6C408.328 664.136 411.162 661.303 414.625 661.303H473.384C476.848 661.303 479.682 664.136 479.682 667.6V696.58C479.682 700.044 476.848 702.878 473.384 702.878" fill="#AFEFEA" blush:i="0.0.0.22"/><path id="Fill 48" fill-rule="evenodd" clip-rule="evenodd" d="M451.074 683.721H421.193C420.365 683.721 419.693 683.049 419.693 682.221C419.693 681.393 420.365 680.721 421.193 680.721H451.074C451.902 680.721 452.574 681.393 452.574 682.221C452.574 683.049 451.902 683.721 451.074 683.721" fill="white" blush:i="0.0.0.23"/><path id="Fill 50" fill-rule="evenodd" clip-rule="evenodd" d="M451.074 690.727H421.193C420.365 690.727 419.693 690.055 419.693 689.227C419.693 688.399 420.365 687.727 421.193 687.727H451.074C451.902 687.727 452.574 688.399 452.574 689.227C452.574 690.055 451.902 690.727 451.074 690.727" fill="white" blush:i="0.0.0.24"/><path id="Fill 52" fill-rule="evenodd" clip-rule="evenodd" d="M465.476 676.715H421.193C420.365 676.715 419.693 676.043 419.693 675.215C419.693 674.387 420.365 673.715 421.193 673.715H465.476C466.304 673.715 466.976 674.387 466.976 675.215C466.976 676.043 466.304 676.715 465.476 676.715" fill="white" blush:i="0.0.0.25"/><path id="Fill 54" fill-rule="evenodd" clip-rule="evenodd" d="M675.323 702.878H616.563C613.1 702.878 610.266 700.044 610.266 696.58V667.6C610.266 664.136 613.1 661.303 616.563 661.303H675.323C678.786 661.303 681.62 664.136 681.62 667.6V696.58C681.62 700.044 678.786 702.878 675.323 702.878" fill="#AFEFEA" blush:i="0.0.0.26"/><path id="Fill 56" fill-rule="evenodd" clip-rule="evenodd" d="M653.014 683.721H623.133C622.305 683.721 621.633 683.049 621.633 682.221C621.633 681.393 622.305 680.721 623.133 680.721H653.014C653.842 680.721 654.514 681.393 654.514 682.221C654.514 683.049 653.842 683.721 653.014 683.721" fill="white" blush:i="0.0.0.27"/><path id="Fill 58" fill-rule="evenodd" clip-rule="evenodd" d="M653.014 690.727H623.133C622.305 690.727 621.633 690.055 621.633 689.227C621.633 688.399 622.305 687.727 623.133 687.727H653.014C653.842 687.727 654.514 688.399 654.514 689.227C654.514 690.055 653.842 690.727 653.014 690.727" fill="white" blush:i="0.0.0.28"/><path id="Fill 60" fill-rule="evenodd" clip-rule="evenodd" d="M667.416 676.715H623.133C622.305 676.715 621.633 676.043 621.633 675.215C621.633 674.387 622.305 673.715 623.133 673.715H667.416C668.244 673.715 668.916 674.387 668.916 675.215C668.916 676.043 668.244 676.715 667.416 676.715" fill="white" blush:i="0.0.0.29"/><path id="Fill 62" fill-rule="evenodd" clip-rule="evenodd" d="M717.702 623.76H658.943C655.479 623.76 652.646 620.927 652.646 617.463V588.483C652.646 585.019 655.479 582.186 658.943 582.186H717.702C721.166 582.186 723.999 585.019 723.999 588.483V617.463C723.999 620.927 721.166 623.76 717.702 623.76" fill="#AFEFEA" blush:i="0.0.0.30"/><path id="Fill 64" fill-rule="evenodd" clip-rule="evenodd" d="M695.395 604.604H665.514C664.686 604.604 664.014 603.932 664.014 603.104C664.014 602.276 664.686 601.604 665.514 601.604H695.395C696.223 601.604 696.895 602.276 696.895 603.104C696.895 603.932 696.223 604.604 695.395 604.604" fill="white" blush:i="0.0.0.31"/><path id="Fill 66" fill-rule="evenodd" clip-rule="evenodd" d="M695.395 611.609H665.514C664.686 611.609 664.014 610.937 664.014 610.109C664.014 609.281 664.686 608.609 665.514 608.609H695.395C696.223 608.609 696.895 609.281 696.895 610.109C696.895 610.937 696.223 611.609 695.395 611.609" fill="white" blush:i="0.0.0.32"/><path id="Fill 68" fill-rule="evenodd" clip-rule="evenodd" d="M709.796 597.598H665.514C664.686 597.598 664.014 596.926 664.014 596.098C664.014 595.27 664.686 594.598 665.514 594.598H709.796C710.624 594.598 711.296 595.27 711.296 596.098C711.296 596.926 710.624 597.598 709.796 597.598" fill="white" blush:i="0.0.0.33"/></g><g id="Group 131" blush:i="0.0.1"><g id="Group 76" blush:i="0.0.1.0"><mask id="mask1_122_20129e35afb16-948b-4e28-9bbe-db357cd28fa2" style="mask-type:alpha" maskUnits="userSpaceOnUse" x="436" y="404" width="196" height="240" blush:i="0.0.1.0.0" fill="#ffffff"><path id="Clip 75" fill-rule="evenodd" clip-rule="evenodd" d="M436.934 524.043C436.934 587.993 479.918 640.225 534.014 643.557V643.557C588.108 640.225 631.092 587.993 631.092 524.043V524.043C631.092 460.093 588.108 407.86 534.014 404.53V404.53C479.918 407.86 436.934 460.093 436.934 524.043" fill="#ffffff" blush:i="0.0.1.0.0.0"/></mask><g mask="url(#mask1_122_20129e35afb16-948b-4e28-9bbe-db357cd28fa2)" blush:i="0.0.1.0.1"><path id="Fill 74" fill-rule="evenodd" clip-rule="evenodd" d="M479.387 567.456C465.098 574.843 416.023 670.831 416.023 670.831L439.214 688.24C474.615 642.203 487.318 611.338 487.318 611.338C492.007 601.103 499.172 583.85 479.387 567.456" fill="#E35A38" blush:i="0.0.1.0.1.0"/></g></g><g id="Group 91" blush:i="0.0.1.1"><mask id="mask2_122_20129e35afb16-948b-4e28-9bbe-db357cd28fa2" style="mask-type:alpha" maskUnits="userSpaceOnUse" x="436" y="404" width="196" height="240" blush:i="0.0.1.1.0" fill="#ffffff"><path id="Clip 90" fill-rule="evenodd" clip-rule="evenodd" d="M436.934 524.043C436.934 587.993 479.918 640.225 534.014 643.557V643.557C588.108 640.225 631.092 587.993 631.092 524.043V524.043C631.092 460.093 588.108 407.86 534.014 404.53V404.53C479.918 407.86 436.934 460.093 436.934 524.043" fill="#ffffff" blush:i="0.0.1.1.0.0"/></mask><g mask="url(#mask2_122_20129e35afb16-948b-4e28-9bbe-db357cd28fa2)" blush:i="0.0.1.1.1"><path id="Fill 89" fill-rule="evenodd" clip-rule="evenodd" d="M609.001 567.456C623.29 574.843 672.364 670.831 672.364 670.831L649.174 688.24C613.772 642.203 601.069 611.338 601.069 611.338C596.381 601.103 589.216 583.85 609.001 567.456" fill="#E35A38" blush:i="0.0.1.1.1.0"/></g></g><g id="Group 103" blush:i="0.0.1.2"><mask id="mask3_122_20129e35afb16-948b-4e28-9bbe-db357cd28fa2" style="mask-type:alpha" maskUnits="userSpaceOnUse" x="436" y="404" width="196" height="240" blush:i="0.0.1.2.0" fill="#ffffff"><path id="Clip 102" fill-rule="evenodd" clip-rule="evenodd" d="M436.934 524.043C436.934 587.993 479.918 640.225 534.014 643.557V643.557C588.108 640.225 631.092 587.993 631.092 524.043V524.043C631.092 460.093 588.108 407.86 534.014 404.53V404.53C479.918 407.86 436.934 460.093 436.934 524.043" fill="#ffffff" blush:i="0.0.1.2.0.0"/></mask><g mask="url(#mask3_122_20129e35afb16-948b-4e28-9bbe-db357cd28fa2)" blush:i="0.0.1.2.1"><path id="Fill 101" fill-rule="evenodd" clip-rule="evenodd" d="M484.02 563.675C484.022 561.72 482.439 560.133 480.484 560.131H480.48C478.527 560.131 476.943 561.713 476.94 563.666C476.94 563.666 474.222 575.167 480.749 594.808C484.328 594.808 484.02 563.675 484.02 563.675" fill="#FDCF3C" blush:i="0.0.1.2.1.0"/></g></g><mask id="mask4_122_20129e35afb16-948b-4e28-9bbe-db357cd28fa2" style="mask-type:alpha" maskUnits="userSpaceOnUse" x="436" y="404" width="196" height="240" blush:i="0.0.1.3" fill="#ffffff"><path id="Clip 105" fill-rule="evenodd" clip-rule="evenodd" d="M436.934 524.043C436.934 587.993 479.918 640.225 534.014 643.557V643.557C588.108 640.225 631.092 587.993 631.092 524.043V524.043C631.092 460.093 588.108 407.86 534.014 404.53V404.53C479.918 407.86 436.934 460.093 436.934 524.043V524.043Z" fill="#ffffff" blush:i="0.0.1.3.0"/></mask><g mask="url(#mask4_122_20129e35afb16-948b-4e28-9bbe-db357cd28fa2)" blush:i="0.0.1.4"><path id="Fill 106" fill-rule="evenodd" clip-rule="evenodd" d="M572.949 558.696L526.34 687.145L499.404 560.331L513.154 557.904C518.241 554.238 528.278 550.648 535.88 550.648C545.328 550.648 549.706 551.953 557.629 555.499L572.949 558.696Z" fill="#FCE9D4" blush:i="0.0.1.4.0"/><path id="Stroke 107" d="M575.914 581.219V585.219H491.262V581.219H575.914Z" fill="#E2C9B0" blush:i="0.0.1.4.1"/><path id="Stroke 108" d="M575.914 610.2V614.2H491.262V610.2H575.914Z" fill="#E2C9B0" blush:i="0.0.1.4.2"/><path id="Stroke 109" d="M575.914 640.526V644.526H491.262V640.526H575.914Z" fill="#E2C9B0" blush:i="0.0.1.4.3"/><path id="Fill 110" fill-rule="evenodd" clip-rule="evenodd" d="M606.145 565.441C606.145 565.441 588.386 578.851 600.879 611.338L575.709 687.146H526.34L572.95 558.697L606.145 565.441Z" fill="#E35A38" blush:i="0.0.1.4.4"/><path id="Fill 111" fill-rule="evenodd" clip-rule="evenodd" d="M480.444 594.808L480.481 566.326L499.424 560.416L526.34 687.146H495.188L481.311 630.511C481.311 630.511 471.812 623.364 471.812 615.428C471.812 606.628 480.444 594.808 480.444 594.808" fill="#E35A38" blush:i="0.0.1.4.5"/><path id="Fill 113" fill-rule="evenodd" clip-rule="evenodd" d="M600.879 611.338C594.69 578.089 607.64 568.816 608.427 568.145C609.912 566.882 610.102 564.651 608.844 563.161C607.587 561.671 605.366 561.475 603.872 562.727C603.629 562.93 596.118 567.234 593.818 576.988C590.598 590.648 593.167 600.828 600.879 611.338" fill="#FDCF3C" blush:i="0.0.1.4.6"/><path id="Fill 114" fill-rule="evenodd" clip-rule="evenodd" d="M481.311 630.511C481.311 630.511 471.812 623.364 471.812 615.428C471.812 606.628 480.444 594.808 480.444 594.808L480.481 566.325" fill="#E35A38" blush:i="0.0.1.4.7"/><path id="Fill 115" fill-rule="evenodd" clip-rule="evenodd" d="M481.312 630.511C478.321 628.771 475.64 626.455 473.458 623.607C472.401 622.163 471.427 620.577 470.843 618.763C470.238 616.962 470.08 614.893 470.284 613.072C470.675 609.352 471.947 605.953 473.441 602.751C474.984 599.544 476.749 596.562 478.869 593.657L478.493 594.805C478.53 592.432 478.595 590.058 478.689 587.685C478.766 585.312 478.933 582.938 479.057 580.565C479.225 578.192 479.383 575.819 479.626 573.445C479.85 571.072 480.12 568.699 480.481 566.325C480.836 568.699 481.1 571.074 481.318 573.448C481.555 575.821 481.707 578.195 481.87 580.569C481.987 582.942 482.148 585.316 482.219 587.69C482.307 590.063 482.367 592.437 482.398 594.81L482.406 595.395L482.022 595.959C480.2 598.639 478.458 601.551 476.985 604.48C475.508 607.414 474.235 610.464 473.657 613.53C473.35 615.086 473.294 616.504 473.616 618.002C473.953 619.485 474.509 620.998 475.291 622.432C476.842 625.315 478.963 627.997 481.312 630.511" fill="#BF432B" blush:i="0.0.1.4.8"/><path id="Fill 116" fill-rule="evenodd" clip-rule="evenodd" d="M555.647 514.528C555.647 514.528 553.073 549.651 563.109 556.372C557.459 560.08 542.845 565.981 526.77 565.981C514.397 565.981 510.871 558.69 510.871 558.69C510.871 558.69 514.521 556.18 513.772 548.664C515.739 549.542 518.991 549.666 518.991 549.666C530.82 549.406 552.019 541.881 555.647 514.528" fill="#16494C" blush:i="0.0.1.4.9"/><path id="Fill 117" fill-rule="evenodd" clip-rule="evenodd" d="M526.249 449.611C545.117 448.148 563.075 458.184 563.075 489.75L561.906 513.132C558.118 541.69 528.869 549.66 519.056 549.66C508.475 549.66 499.187 537.169 496.92 527.077C495.466 520.605 495.789 513.88 495.087 507.284C494.364 500.506 492.988 493.796 492.988 486.978C492.988 472.214 501.113 451.559 526.249 449.611" fill="#F2684E" blush:i="0.0.1.4.10"/><path id="Fill 118" fill-rule="evenodd" clip-rule="evenodd" d="M516.222 503.264C516.385 504.974 515.869 506.767 514.884 508.263C514.411 509.031 513.775 509.69 513.084 510.287C512.377 510.896 511.554 511.301 511.055 511.702C510.543 512.074 510.278 512.586 510.303 512.885C510.259 513.21 510.777 513.79 511.326 514.228C512.513 515.097 514.083 515.75 515.614 516.466C513.901 516.548 512.194 516.366 510.505 515.555C510.067 515.328 509.686 515.082 509.309 514.712C508.94 514.355 508.564 513.847 508.433 513.183C508.21 511.787 509.042 510.734 509.824 510.127C510.642 509.516 511.345 509.217 511.937 508.787C512.563 508.375 513.119 507.859 513.657 507.31C514.711 506.187 515.561 504.839 516.222 503.264" fill="#2D2824" blush:i="0.0.1.4.11"/><path id="Fill 119" fill-rule="evenodd" clip-rule="evenodd" d="M508.527 527.82C508.004 526.581 507.715 525.219 507.715 523.79H528.451C528.451 525.219 528.162 526.581 527.638 527.82H508.527Z" fill="#FCE9D4" blush:i="0.0.1.4.12"/><path id="Fill 120" fill-rule="evenodd" clip-rule="evenodd" d="M527.638 527.82C526.066 531.545 522.379 534.159 518.082 534.159C513.785 534.159 510.099 531.545 508.527 527.82H527.638Z" fill="#2D2824" blush:i="0.0.1.4.13"/><path id="Fill 121" fill-rule="evenodd" clip-rule="evenodd" d="M530.451 521.79H528.451H507.715H505.715V523.79C505.715 525.456 506.041 527.073 506.683 528.598C508.623 533.191 513.097 536.159 518.082 536.159C523.067 536.159 527.542 533.191 529.48 528.598C530.125 527.073 530.451 525.456 530.451 523.79V521.79ZM528.451 523.79C528.451 525.22 528.162 526.581 527.638 527.82C526.066 531.545 522.38 534.159 518.082 534.159C513.785 534.159 510.099 531.545 508.527 527.82C508.004 526.581 507.715 525.22 507.715 523.79H528.451V523.79Z" fill="#FF4848" blush:i="0.0.1.4.14"/><path id="Fill 122" fill-rule="evenodd" clip-rule="evenodd" d="M536.391 491.189C535.151 489.168 532.969 487.701 530.587 487.457C528.056 487.197 525.58 488.22 523.882 490.089C522.731 491.356 520.858 489.474 522.005 488.212C524.193 485.804 527.555 484.46 530.805 484.825C534.061 485.192 536.97 487.057 538.683 489.849C539.579 491.309 537.285 492.644 536.391 491.189" fill="#2D2824" blush:i="0.0.1.4.15"/><path id="Fill 123" fill-rule="evenodd" clip-rule="evenodd" d="M497.476 489.059C499.01 487.064 501.317 485.781 503.872 485.796C506.421 485.812 508.726 487.118 510.23 489.132C510.66 489.707 510.324 490.616 509.754 490.949C509.077 491.345 508.369 491.048 507.938 490.472C505.981 487.852 501.77 487.796 499.768 490.399C499.332 490.966 498.626 491.269 497.953 490.874C497.394 490.548 497.037 489.63 497.476 489.059" fill="#2D2824" blush:i="0.0.1.4.16"/><path id="Fill 124" fill-rule="evenodd" clip-rule="evenodd" d="M522.984 499.622C522.984 502.145 525.6 504.192 528.828 504.192C532.055 504.192 534.672 502.145 534.672 499.622C534.672 497.098 532.055 495.052 528.828 495.052C525.6 495.052 522.984 497.098 522.984 499.622" fill="#FCE9D4" blush:i="0.0.1.4.17"/><path id="Fill 125" fill-rule="evenodd" clip-rule="evenodd" d="M534.673 499.622C534.243 498.223 533.327 497.31 532.284 496.709C531.228 496.113 530.027 495.855 528.828 495.844C527.63 495.858 526.43 496.114 525.375 496.712C524.332 497.312 523.416 498.223 522.985 499.622C522.538 498.196 523.246 496.482 524.445 495.458C525.637 494.393 527.246 493.844 528.828 493.845C530.41 493.848 532.02 494.393 533.21 495.46C534.408 496.484 535.116 498.197 534.673 499.622" fill="#2D2824" blush:i="0.0.1.4.18"/><path id="Fill 126" fill-rule="evenodd" clip-rule="evenodd" d="M522.984 499.622C522.984 501.57 524.553 503.149 526.489 503.149C528.424 503.149 529.994 501.57 529.994 499.622C529.994 497.674 528.424 496.095 526.489 496.095C524.553 496.095 522.984 497.674 522.984 499.622" fill="#2D2824" blush:i="0.0.1.4.19"/><path id="Fill 127" fill-rule="evenodd" clip-rule="evenodd" d="M498.736 499.622C498.736 502.145 501.352 504.192 504.58 504.192C507.807 504.192 510.424 502.145 510.424 499.622C510.424 497.098 507.807 495.052 504.58 495.052C501.352 495.052 498.736 497.098 498.736 499.622" fill="#FCE9D4" blush:i="0.0.1.4.20"/><path id="Fill 128" fill-rule="evenodd" clip-rule="evenodd" d="M510.425 499.622C509.995 498.223 509.079 497.31 508.036 496.709C506.98 496.113 505.779 495.855 504.58 495.844C503.382 495.858 502.182 496.114 501.126 496.712C500.084 497.312 499.168 498.223 498.737 499.622C498.29 498.196 498.998 496.482 500.197 495.458C501.389 494.393 502.998 493.844 504.58 493.845C506.162 493.848 507.772 494.393 508.962 495.46C510.16 496.484 510.868 498.197 510.425 499.622" fill="#2D2824" blush:i="0.0.1.4.21"/><path id="Fill 129" fill-rule="evenodd" clip-rule="evenodd" d="M498.736 499.622C498.736 501.57 500.305 503.149 502.241 503.149C504.176 503.149 505.746 501.57 505.746 499.622C505.746 497.674 504.176 496.095 502.241 496.095C500.305 496.095 498.736 497.674 498.736 499.622" fill="#2D2824" blush:i="0.0.1.4.22"/><path id="Fill 130" fill-rule="evenodd" clip-rule="evenodd" d="M579.557 478.467C579.557 495.832 574.996 500.643 579.557 504.674C583.744 508.376 592.514 502.804 592.514 502.804C593.579 512.223 595.802 526.99 580.86 534.651C571.006 539.7 557.552 538.472 555.227 531.917C553.083 525.877 554.985 506.302 549.758 500.364C543.997 493.821 537.876 497.173 531.137 490.353C525.74 484.891 516.626 450.667 500.403 463.203C489.537 479.442 494.169 495.599 495.087 507.284C496.084 519.976 495.692 524.13 498.302 531.49C498.302 531.49 491.973 536.532 486.127 534.973C480.282 533.414 473.073 526.595 472.293 513.132C481.256 517.826 489.244 514.124 486.907 506.526C484.569 498.926 479.467 484.91 479.467 484.91C479.467 484.91 471.319 460.931 487.224 459.523C487.224 459.523 495.89 431.418 532.362 432.722C559.614 433.696 579.557 457.226 579.557 478.467" fill="#2D2824" blush:i="0.0.1.4.23"/></g></g><path id="Fill 132" fill-rule="evenodd" clip-rule="evenodd" d="M514.896 689.945C517.087 693.034 519.853 695.504 522.983 697.312C526.106 699.132 529.563 700.305 533.116 700.955C536.672 701.605 540.332 701.737 543.98 701.423C547.634 701.116 551.264 700.354 554.898 699.3C551.667 701.277 548.015 702.608 544.232 703.304C540.447 703.996 536.508 704.034 532.68 703.329C528.859 702.631 525.127 701.177 521.954 698.9C520.371 697.762 518.931 696.425 517.725 694.914C516.53 693.397 515.536 691.731 514.896 689.945" fill="white" blush:i="0.0.2"/></g></g></svg>