<svg width="132" height="60" viewBox="0 0 132 60" fill="none" xmlns="http://www.w3.org/2000/svg">
	<path d="M55.704 42.978C55.5573 43.022 55.3227 43.066 55 43.11C54.692 43.154 54.3693 43.176 54.032 43.176C53.7093 43.176 53.416 43.154 53.152 43.11C52.9027 43.066 52.69 42.978 52.514 42.846C52.338 42.714 52.1987 42.538 52.096 42.318C52.008 42.0833 51.964 41.7827 51.964 41.416V36.532C51.964 35.9307 51.81 35.5127 51.502 35.278C51.2087 35.0287 50.842 34.904 50.402 34.904C50.1087 34.904 49.83 34.9407 49.566 35.014C49.302 35.0873 49.0893 35.1753 48.928 35.278V42.978C48.7813 43.022 48.5467 43.066 48.224 43.11C47.916 43.154 47.5933 43.176 47.256 43.176C46.9333 43.176 46.64 43.154 46.376 43.11C46.1267 43.066 45.914 42.978 45.738 42.846C45.562 42.714 45.4227 42.538 45.32 42.318C45.232 42.0833 45.188 41.7827 45.188 41.416V28.656C45.3493 28.6267 45.584 28.59 45.892 28.546C46.2147 28.4873 46.5373 28.458 46.86 28.458C47.1827 28.458 47.4687 28.48 47.718 28.524C47.982 28.568 48.202 28.656 48.378 28.788C48.554 28.92 48.686 29.1033 48.774 29.338C48.8767 29.558 48.928 29.8513 48.928 30.218V32.374C49.1187 32.3007 49.4047 32.22 49.786 32.132C50.182 32.0293 50.6147 31.978 51.084 31.978C52.536 31.978 53.6653 32.3447 54.472 33.078C55.2933 33.7967 55.704 34.8747 55.704 36.312V42.978ZM70.1791 37.654C70.1791 38.5633 70.0398 39.3773 69.7611 40.096C69.4825 40.8 69.0865 41.394 68.5731 41.878C68.0745 42.362 67.4731 42.7287 66.7691 42.978C66.0651 43.2273 65.2805 43.352 64.4151 43.352C63.5498 43.352 62.7651 43.22 62.0611 42.956C61.3571 42.692 60.7485 42.318 60.2351 41.834C59.7365 41.3353 59.3478 40.734 59.0691 40.03C58.7905 39.326 58.6511 38.534 58.6511 37.654C58.6511 36.7887 58.7905 36.004 59.0691 35.3C59.3478 34.596 59.7365 34.002 60.2351 33.518C60.7485 33.0193 61.3571 32.638 62.0611 32.374C62.7651 32.11 63.5498 31.978 64.4151 31.978C65.2805 31.978 66.0651 32.1173 66.7691 32.396C67.4731 32.66 68.0745 33.0413 68.5731 33.54C69.0865 34.024 69.4825 34.618 69.7611 35.322C70.0398 36.026 70.1791 36.8033 70.1791 37.654ZM62.4791 37.654C62.4791 38.5487 62.6478 39.238 62.9851 39.722C63.3371 40.1913 63.8211 40.426 64.4371 40.426C65.0531 40.426 65.5225 40.184 65.8451 39.7C66.1825 39.216 66.3511 38.534 66.3511 37.654C66.3511 36.774 66.1825 36.0993 65.8451 35.63C65.5078 35.146 65.0311 34.904 64.4151 34.904C63.7991 34.904 63.3225 35.146 62.9851 35.63C62.6478 36.0993 62.4791 36.774 62.4791 37.654ZM73.1038 32.462C73.2504 32.418 73.4778 32.374 73.7858 32.33C74.1084 32.286 74.4384 32.264 74.7758 32.264C75.0984 32.264 75.3844 32.286 75.6338 32.33C75.8978 32.374 76.1178 32.462 76.2938 32.594C76.4698 32.726 76.6018 32.9093 76.6898 33.144C76.7924 33.364 76.8438 33.6573 76.8438 34.024V38.754C76.8438 39.3553 76.9904 39.788 77.2838 40.052C77.5771 40.3013 78.0024 40.426 78.5598 40.426C78.8971 40.426 79.1684 40.3967 79.3738 40.338C79.5938 40.2793 79.7624 40.2207 79.8798 40.162V32.462C80.0264 32.418 80.2538 32.374 80.5618 32.33C80.8844 32.286 81.2144 32.264 81.5518 32.264C81.8744 32.264 82.1604 32.286 82.4098 32.33C82.6738 32.374 82.8938 32.462 83.0698 32.594C83.2458 32.726 83.3778 32.9093 83.4658 33.144C83.5684 33.364 83.6198 33.6573 83.6198 34.024V40.712C83.6198 41.4453 83.3118 41.9953 82.6958 42.362C82.1824 42.6847 81.5664 42.9267 80.8478 43.088C80.1438 43.264 79.3738 43.352 78.5378 43.352C77.7458 43.352 77.0124 43.264 76.3378 43.088C75.6778 42.912 75.1058 42.6407 74.6218 42.274C74.1378 41.9073 73.7638 41.438 73.4998 40.866C73.2358 40.2793 73.1038 39.5753 73.1038 38.754V32.462ZM96.0285 39.81C96.0285 40.9247 95.6105 41.7973 94.7745 42.428C93.9385 43.0587 92.7065 43.374 91.0785 43.374C90.4625 43.374 89.8905 43.33 89.3625 43.242C88.8345 43.154 88.3798 43.022 87.9985 42.846C87.6318 42.6553 87.3385 42.4207 87.1185 42.142C86.9131 41.8633 86.8105 41.5333 86.8105 41.152C86.8105 40.8 86.8838 40.5067 87.0305 40.272C87.1771 40.0227 87.3531 39.8173 87.5585 39.656C87.9838 39.8907 88.4678 40.1033 89.0105 40.294C89.5678 40.47 90.2058 40.558 90.9245 40.558C91.3791 40.558 91.7238 40.492 91.9585 40.36C92.2078 40.228 92.3325 40.052 92.3325 39.832C92.3325 39.6267 92.2445 39.4653 92.0685 39.348C91.8925 39.2307 91.5991 39.1353 91.1885 39.062L90.5285 38.93C89.2525 38.6807 88.2991 38.292 87.6685 37.764C87.0525 37.2213 86.7445 36.4513 86.7445 35.454C86.7445 34.9113 86.8618 34.42 87.0965 33.98C87.3311 33.54 87.6611 33.1733 88.0865 32.88C88.5118 32.5867 89.0178 32.3593 89.6045 32.198C90.2058 32.0367 90.8658 31.956 91.5845 31.956C92.1271 31.956 92.6331 32 93.1025 32.088C93.5865 32.1613 94.0045 32.2787 94.3565 32.44C94.7085 32.6013 94.9871 32.814 95.1925 33.078C95.3978 33.3273 95.5005 33.628 95.5005 33.98C95.5005 34.3173 95.4345 34.6107 95.3025 34.86C95.1851 35.0947 95.0311 35.2927 94.8405 35.454C94.7231 35.3807 94.5471 35.3073 94.3125 35.234C94.0778 35.146 93.8211 35.0727 93.5425 35.014C93.2638 34.9407 92.9778 34.882 92.6845 34.838C92.4058 34.794 92.1491 34.772 91.9145 34.772C91.4305 34.772 91.0565 34.8307 90.7925 34.948C90.5285 35.0507 90.3965 35.2193 90.3965 35.454C90.3965 35.6153 90.4698 35.7473 90.6165 35.85C90.7631 35.9527 91.0418 36.048 91.4525 36.136L92.1345 36.29C93.5425 36.6127 94.5398 37.06 95.1265 37.632C95.7278 38.1893 96.0285 38.9153 96.0285 39.81ZM98.8486 29.338C98.8486 28.7807 99.0319 28.3113 99.3986 27.93C99.7799 27.5487 100.279 27.358 100.895 27.358C101.511 27.358 102.002 27.5487 102.369 27.93C102.75 28.3113 102.941 28.7807 102.941 29.338C102.941 29.8953 102.75 30.3647 102.369 30.746C102.002 31.1273 101.511 31.318 100.895 31.318C100.279 31.318 99.7799 31.1273 99.3986 30.746C99.0319 30.3647 98.8486 29.8953 98.8486 29.338ZM102.765 42.978C102.603 43.0073 102.361 43.044 102.039 43.088C101.731 43.1467 101.415 43.176 101.093 43.176C100.77 43.176 100.477 43.154 100.213 43.11C99.9632 43.066 99.7506 42.978 99.5746 42.846C99.3986 42.714 99.2592 42.538 99.1566 42.318C99.0686 42.0833 99.0246 41.7827 99.0246 41.416V32.462C99.1859 32.4327 99.4206 32.396 99.7286 32.352C100.051 32.2933 100.374 32.264 100.697 32.264C101.019 32.264 101.305 32.286 101.555 32.33C101.819 32.374 102.039 32.462 102.215 32.594C102.391 32.726 102.523 32.9093 102.611 33.144C102.713 33.364 102.765 33.6573 102.765 34.024V42.978ZM113.022 36.224C113.022 35.7693 112.89 35.4393 112.626 35.234C112.376 35.014 112.032 34.904 111.592 34.904C111.298 34.904 111.005 34.9407 110.712 35.014C110.433 35.0873 110.191 35.1973 109.986 35.344V42.978C109.839 43.022 109.604 43.066 109.282 43.11C108.974 43.154 108.651 43.176 108.314 43.176C107.991 43.176 107.698 43.154 107.434 43.11C107.184 43.066 106.972 42.978 106.796 42.846C106.62 42.714 106.48 42.538 106.378 42.318C106.29 42.0833 106.246 41.7827 106.246 41.416V34.816C106.246 34.42 106.326 34.0973 106.488 33.848C106.664 33.5987 106.898 33.3713 107.192 33.166C107.69 32.814 108.314 32.528 109.062 32.308C109.824 32.088 110.668 31.978 111.592 31.978C113.249 31.978 114.525 32.3447 115.42 33.078C116.314 33.7967 116.762 34.8013 116.762 36.092V42.978C116.615 43.022 116.38 43.066 116.058 43.11C115.75 43.154 115.427 43.176 115.09 43.176C114.767 43.176 114.474 43.154 114.21 43.11C113.96 43.066 113.748 42.978 113.572 42.846C113.396 42.714 113.256 42.538 113.154 42.318C113.066 42.0833 113.022 41.7827 113.022 41.416V36.224ZM125.386 31.978C126.222 31.978 126.977 32.088 127.652 32.308C128.341 32.5133 128.92 32.7847 129.39 33.122C129.683 33.3273 129.91 33.5547 130.072 33.804C130.248 34.0533 130.336 34.376 130.336 34.772V42.472C130.336 43.2493 130.189 43.9167 129.896 44.474C129.602 45.046 129.199 45.5153 128.686 45.882C128.187 46.2633 127.593 46.542 126.904 46.718C126.229 46.894 125.503 46.982 124.726 46.982C123.391 46.982 122.342 46.7987 121.58 46.432C120.817 46.08 120.436 45.5007 120.436 44.694C120.436 44.3567 120.502 44.056 120.634 43.792C120.78 43.5427 120.942 43.352 121.118 43.22C121.543 43.4547 122.02 43.6527 122.548 43.814C123.09 43.9753 123.648 44.056 124.22 44.056C125.012 44.056 125.642 43.924 126.112 43.66C126.581 43.396 126.816 42.9707 126.816 42.384V42.032C126.214 42.296 125.481 42.428 124.616 42.428C123.956 42.428 123.325 42.3327 122.724 42.142C122.137 41.9367 121.616 41.6287 121.162 41.218C120.722 40.7927 120.362 40.25 120.084 39.59C119.82 38.93 119.688 38.1453 119.688 37.236C119.688 36.3413 119.827 35.564 120.106 34.904C120.399 34.244 120.795 33.7013 121.294 33.276C121.807 32.836 122.408 32.5133 123.098 32.308C123.802 32.088 124.564 31.978 125.386 31.978ZM126.75 35.168C126.647 35.1093 126.493 35.0507 126.288 34.992C126.097 34.9333 125.855 34.904 125.562 34.904C124.843 34.904 124.3 35.1093 123.934 35.52C123.582 35.916 123.406 36.488 123.406 37.236C123.406 38.0867 123.582 38.7027 123.934 39.084C124.3 39.4507 124.762 39.634 125.32 39.634C125.921 39.634 126.398 39.4947 126.75 39.216V35.168Z" fill="#2d70f5"/>
	<path fill-rule="evenodd" clip-rule="evenodd" d="M31.7166 29.024V41.4742C31.7166 42.733 30.6844 43.7536 29.4112 43.7536H5.58882C4.31559 43.7536 3.28343 42.733 3.28343 41.4742V29.0175C3.28343 28.4041 3.53342 27.8167 3.9769 27.3879L15.8609 15.8962C16.7556 15.0311 18.185 15.0297 19.0815 15.8931L21.3726 13.5676C19.1994 11.4745 15.7341 11.4779 13.5652 13.5753L1.68113 25.0669C0.60602 26.1065 -5.96046e-08 27.5306 -5.96046e-08 29.0175V41.4742C-5.96046e-08 44.526 2.5022 47 5.58882 47H29.4112C32.4978 47 35 44.526 35 41.4742V29.024C35 27.5333 34.3909 26.1058 33.3109 25.0657L21.3726 13.5676L19.0815 15.8931L31.0198 27.3912C31.4653 27.8202 31.7166 28.4091 31.7166 29.024Z" fill="#2d70f5"/>
</svg>
